G04 Layer_Color=16711935*
%FSLAX44Y44*%
%MOMM*%
G71*
G01*
G75*
%ADD139C,0.0127*%
D139*
X147256Y-350308D02*
G03*
X320132Y-204733I-147256J350308D01*
G01*
X-288361Y-247429D02*
G03*
X-256297Y-280529I291791J250581D01*
G01*
X-301631Y-231092D02*
G03*
X-288359Y-247431I303969J233349D01*
G01*
X-308962Y-221214D02*
G03*
X-301631Y-231091I308070J220980D01*
G01*
X-314526Y-213242D02*
G03*
X-308962Y-221214I310507J210762D01*
G01*
X-319179Y-206215D02*
G03*
X-314526Y-213242I312002J201589D01*
G01*
X-247088Y-288687D02*
G03*
X-239627Y-294918I244299J284938D01*
G01*
X-157624Y-345763D02*
G03*
X-147435Y-350232I155949J341756D01*
G01*
X-210819Y-316145D02*
G03*
X-157620Y-345765I212024J318229D01*
G01*
X-291133Y-244246D02*
G03*
X-210821Y-316145I290742J243961D01*
G01*
X-239628Y-294918D02*
G03*
X-233130Y-300083I234452J288237D01*
G01*
X-256299Y-280527D02*
G03*
X-247091Y-288685I256012J279691D01*
G01*
X89895Y246991D02*
G03*
X100442Y221930I18794J-6840D01*
G01*
X134999Y-202768D02*
G03*
X100441Y221930I-135001J202770D01*
G01*
X134999Y-193898D02*
G03*
X114999Y-173898I-20000J0D01*
G01*
X-115001D02*
G03*
X-135001Y-193898I0J-20000D01*
G01*
X-100444Y221930D02*
G03*
X-135002Y-202768I100442J-221929D01*
G01*
X-100445Y221930D02*
G03*
X-89898Y246991I-8246J18221D01*
G01*
X-122939Y337769D02*
G03*
X-149607Y349313I-18794J-6840D01*
G01*
X-312672Y215954D02*
G03*
X-319022Y206462I309303J-213791D01*
G01*
X-277311Y259796D02*
G03*
X-312672Y215954I279062J-261264D01*
G01*
X-265235Y272122D02*
G03*
X-277311Y259796I265262J-271947D01*
G01*
X-256797Y280102D02*
G03*
X-265235Y272122I254056J-277097D01*
G01*
X-250424Y285811D02*
G03*
X-256609Y280274I244705J-279585D01*
G01*
X-243026Y292119D02*
G03*
X-250424Y285811I239796J-288739D01*
G01*
X-233436Y299823D02*
G03*
X-243026Y292119I232657J-299399D01*
G01*
X-195419Y325863D02*
G03*
X-233436Y299823I197945J-329773D01*
G01*
X-177080Y336198D02*
G03*
X-195419Y325863I178909J-338881D01*
G01*
X-166110Y341763D02*
G03*
X-177080Y336198I166026J-340844D01*
G01*
X-157316Y345907D02*
G03*
X-166110Y341763I155543J-341528D01*
G01*
X-149606Y349313D02*
G03*
X-157316Y345907I146250J-341460D01*
G01*
X-345978Y199752D02*
G03*
X-319179Y206219I10000J17320D01*
G01*
X-358984Y207261D02*
G03*
X-386767Y199094I-10000J-17320D01*
G01*
X-386766Y199096D02*
G03*
X-386766Y-199092I386764J-199094D01*
G01*
X-386767Y-199090D02*
G03*
X-358984Y-207257I17782J9154D01*
G01*
X-319179Y-206215D02*
G03*
X-345978Y-199748I-16799J-10854D01*
G01*
X-135001Y-368746D02*
G03*
X-147252Y-350309I-20000J0D01*
G01*
X-135001Y-376678D02*
G03*
X-122324Y-395290I20000J0D01*
G01*
X-122327Y-395289D02*
G03*
X122324Y-395289I122325J310891D01*
G01*
X122321Y-395290D02*
G03*
X134999Y-376678I-7323J18611D01*
G01*
X147248Y-350309D02*
G03*
X134999Y-368746I7750J-18437D01*
G01*
X345975Y-199748D02*
G03*
X319177Y-206215I-10000J-17320D01*
G01*
X358982Y-207257D02*
G03*
X386764Y-199090I10000J17320D01*
G01*
X386763Y-199092D02*
G03*
X386763Y199096I-386764J199094D01*
G01*
X386764Y199094D02*
G03*
X358982Y207261I-17782J-9154D01*
G01*
X319177Y206219D02*
G03*
X345975Y199752I16799J10854D01*
G01*
X160295Y344535D02*
G03*
X149870Y349199I-158731J-340851D01*
G01*
X209457Y317051D02*
G03*
X160292Y344537I-210613J-319024D01*
G01*
X223640Y307220D02*
G03*
X209459Y317050I-223466J-307217D01*
G01*
X232925Y300244D02*
G03*
X223640Y307220I-230427J-297036D01*
G01*
X239625Y294921D02*
G03*
X233127Y300087I-234452J-288237D01*
G01*
X247087Y288689D02*
G03*
X239625Y294921I-244301J-284937D01*
G01*
X256296Y280531D02*
G03*
X247088Y288688I-256012J-279691D01*
G01*
X288356Y247435D02*
G03*
X256294Y280532I-291789J-250583D01*
G01*
X301626Y231098D02*
G03*
X288357Y247433I-303967J-233352D01*
G01*
X308959Y221218D02*
G03*
X301628Y231096I-308070J-220980D01*
G01*
X314524Y213244D02*
G03*
X308958Y221220I-310508J-210760D01*
G01*
X319177Y206219D02*
G03*
X314522Y213246I-312002J-201589D01*
G01*
X149604Y349313D02*
G03*
X122936Y337769I-7874J-18385D01*
G01*
X-147434Y-350232D02*
X-147252Y-350309D01*
X134999Y-202769D02*
Y-193898D01*
X-115001Y-173898D02*
X114999D01*
X-135001Y-202769D02*
Y-193898D01*
X-122939Y337769D02*
X-89898Y246991D01*
X-319179Y206219D02*
X-319022Y206462D01*
X-256797Y280102D02*
X-256609Y280274D01*
X-358984Y207261D02*
X-345978Y199752D01*
X-358984Y-207257D02*
X-345978Y-199748D01*
X-135001Y-376678D02*
Y-368746D01*
X134999Y-376678D02*
Y-368746D01*
X345975Y-199748D02*
X358982Y-207257D01*
X345975Y199752D02*
X358982Y207261D01*
X149603Y349313D02*
X149870Y349199D01*
X232925Y300244D02*
X233127Y300087D01*
X89895Y246991D02*
X122936Y337769D01*
M02*
