G04 Layer_Color=32896*
%FSLAX44Y44*%
%MOMM*%
G71*
G01*
G75*
%ADD10C,0.2540*%
D10*
X-371677Y-40120D02*
X-364057D01*
X-353897Y-33770D02*
Y11950D01*
X-379297Y-35040D02*
Y11950D01*
X-412970Y-39475D02*
X-405350D01*
X-395190Y-33125D02*
Y12595D01*
X-420590Y-34395D02*
Y12595D01*
X-379217Y-195817D02*
X-309999Y-170624D01*
X-406586Y-105767D02*
X-346916Y-84049D01*
X-409622Y-112278D02*
X-406586Y-105767D01*
X-340405Y-87085D02*
X-309999Y-170624D01*
X-409622Y-112278D02*
X-379217Y-195817D01*
X-345507Y-76779D02*
X-334113Y-82092D01*
X-346916Y-84049D02*
X-340405Y-87085D01*
X-331780Y-69315D02*
Y-42645D01*
X-359720D02*
X-331780D01*
X-359720Y-69315D02*
Y-42645D01*
Y-69315D02*
X-331780D01*
X-353370Y-74395D02*
X-339400D01*
X-334771Y-24597D02*
X-336437Y-22931D01*
X-339770D01*
X-341436Y-24597D01*
Y-31261D01*
X-339770Y-32927D01*
X-336437D01*
X-334771Y-31261D01*
X-331439Y-24597D02*
X-329773Y-22931D01*
X-326441D01*
X-324775Y-24597D01*
Y-26263D01*
X-326441Y-27929D01*
X-328107D01*
X-326441D01*
X-324775Y-29595D01*
Y-31261D01*
X-326441Y-32927D01*
X-329773D01*
X-331439Y-31261D01*
X-408708Y29021D02*
X-410375Y30687D01*
X-413707D01*
X-415373Y29021D01*
Y22356D01*
X-413707Y20690D01*
X-410375D01*
X-408708Y22356D01*
X-398712Y20690D02*
X-405376D01*
X-398712Y27355D01*
Y29021D01*
X-400378Y30687D01*
X-403710D01*
X-405376Y29021D01*
X-345643Y28041D02*
X-347309Y29707D01*
X-350641D01*
X-352307Y28041D01*
Y21376D01*
X-350641Y19710D01*
X-347309D01*
X-345643Y21376D01*
X-342310Y19710D02*
X-338978D01*
X-340644D01*
Y29707D01*
X-342310Y28041D01*
X50559Y-393403D02*
Y-378168D01*
X55637Y-383246D01*
X60716Y-378168D01*
Y-393403D01*
X65794D02*
Y-378168D01*
X73412D01*
X75951Y-380707D01*
Y-385785D01*
X73412Y-388325D01*
X65794D01*
X70872D02*
X75951Y-393403D01*
X81029Y-378168D02*
Y-393403D01*
X88647D01*
X91186Y-390864D01*
Y-388325D01*
X88647Y-385785D01*
X81029D01*
X88647D01*
X91186Y-383246D01*
Y-380707D01*
X88647Y-378168D01*
X81029D01*
X-320693Y-102024D02*
X-318414Y-108287D01*
X-319553Y-105155D01*
X-328947Y-108574D01*
X-326668Y-114837D02*
X-317274Y-111418D01*
X-315564Y-116115D01*
X-316560Y-118250D01*
X-319692Y-119390D01*
X-321827Y-118394D01*
X-323537Y-113697D01*
X-313141Y-127644D02*
X-312145Y-125509D01*
X-313285Y-122377D01*
X-315421Y-121382D01*
X-316986Y-121951D01*
X-317982Y-124087D01*
X-316842Y-127218D01*
X-317838Y-129354D01*
X-319404Y-129923D01*
X-321539Y-128928D01*
X-322679Y-125796D01*
X-321683Y-123661D01*
X-310436Y-130206D02*
X-308156Y-136468D01*
X-309722Y-137038D01*
X-318264Y-133055D01*
X-319830Y-133625D01*
X-314845Y-142449D02*
X-315841Y-144584D01*
X-314701Y-147716D01*
X-312565Y-148711D01*
X-306303Y-146432D01*
X-305307Y-144296D01*
X-306447Y-141165D01*
X-308582Y-140169D01*
X-310148Y-140739D01*
X-311144Y-142875D01*
X-309434Y-147572D01*
X-301318Y-155256D02*
X-303598Y-148993D01*
X-308295Y-150703D01*
X-305589Y-153264D01*
X-305019Y-154830D01*
X-306015Y-156966D01*
X-309146Y-158105D01*
X-311282Y-157109D01*
X-312422Y-153978D01*
X-311426Y-151843D01*
X55672Y-306444D02*
Y-296447D01*
X62337Y-306444D01*
Y-296447D01*
X72333Y-298113D02*
X70667Y-296447D01*
X67335D01*
X65669Y-298113D01*
Y-304778D01*
X67335Y-306444D01*
X70667D01*
X72333Y-304778D01*
M02*
