G04 Layer_Color=16711935*
%FSLAX44Y44*%
%MOMM*%
G71*
G01*
G75*
%ADD76C,0.1000*%
D76*
X323325Y-21539D02*
X324807Y-4603D01*
X313861Y-20711D02*
X315343Y-3775D01*
X324807Y-4603D01*
X313861Y-20711D02*
X323325Y-21539D01*
X-260736Y190103D02*
X-250986Y204028D01*
X-252954Y184654D02*
X-243204Y198579D01*
X-260736Y190103D02*
X-252954Y184654D01*
X-250986Y204028D02*
X-243204Y198579D01*
X-308972Y91916D02*
X-304572Y108337D01*
X-299796Y89457D02*
X-295396Y105878D01*
X-308972Y91916D02*
X-299796Y89457D01*
X-304572Y108337D02*
X-295396Y105878D01*
X-312664Y-81944D02*
X-308264Y-98365D01*
X-303488Y-79485D02*
X-299088Y-95906D01*
X-308264Y-98365D02*
X-299088Y-95906D01*
X-312664Y-81944D02*
X-303488Y-79485D01*
X-275416Y-169599D02*
X-265666Y-183524D01*
X-267634Y-164150D02*
X-257884Y-178075D01*
X-265666Y-183524D02*
X-257884Y-178075D01*
X-275416Y-169599D02*
X-267634Y-164150D01*
X-115206Y-301377D02*
X-99231Y-307192D01*
X-111957Y-292450D02*
X-95982Y-298265D01*
X-99231Y-307192D02*
X-95982Y-298265D01*
X-115206Y-301377D02*
X-111957Y-292450D01*
X-9338Y-323030D02*
X7662D01*
X-9338Y-313530D02*
X7662D01*
Y-323030D02*
Y-313530D01*
X-9338Y-323030D02*
Y-313530D01*
X176562Y-271591D02*
X190487Y-261840D01*
X171113Y-263809D02*
X185038Y-254059D01*
X190487Y-261840D01*
X171113Y-263809D02*
X176562Y-271591D01*
X250518Y-194509D02*
X261445Y-181486D01*
X243241Y-188402D02*
X254168Y-175379D01*
X261445Y-181486D01*
X243241Y-188402D02*
X250518Y-194509D01*
X306963Y101723D02*
X311363Y85302D01*
X297787Y99264D02*
X302187Y82843D01*
X297787Y99264D02*
X306963Y101723D01*
X302187Y82843D02*
X311363Y85302D01*
X190235Y261366D02*
X203257Y250439D01*
X184128Y254089D02*
X197151Y243162D01*
X184128Y254089D02*
X190235Y261366D01*
X197151Y243162D02*
X203257Y250439D01*
X122945Y299853D02*
X138352Y292669D01*
X118930Y291243D02*
X134337Y284059D01*
X118930Y291243D02*
X122945Y299853D01*
X134337Y284059D02*
X138352Y292669D01*
X62683Y-370232D02*
X79683D01*
X62683Y-360732D02*
X79683D01*
Y-370232D02*
Y-360732D01*
X62683Y-370232D02*
Y-360732D01*
X-328156Y158381D02*
X-320972Y173788D01*
X-319546Y154366D02*
X-312362Y169773D01*
X-328156Y158381D02*
X-319546Y154366D01*
X-320972Y173788D02*
X-312362Y169773D01*
X308444Y170917D02*
X316944Y156195D01*
X316672Y175667D02*
X325172Y160945D01*
X316944Y156195D02*
X325172Y160945D01*
X308444Y170917D02*
X316672Y175667D01*
M02*
