G04 Layer_Physical_Order=1*
G04 Layer_Color=255*
%FSLAX44Y44*%
%MOMM*%
G71*
G01*
G75*
%ADD10C,0.2540*%
%ADD11C,0.5000*%
%ADD12C,0.0130*%
G04:AMPARAMS|DCode=13|XSize=1.1mm|YSize=2.4mm|CornerRadius=0mm|HoleSize=0mm|Usage=FLASHONLY|Rotation=30.000|XOffset=0mm|YOffset=0mm|HoleType=Round|Shape=Rectangle|*
%AMROTATEDRECTD13*
4,1,4,0.1237,-1.3142,-1.0763,0.7642,-0.1237,1.3142,1.0763,-0.7642,0.1237,-1.3142,0.0*
%
%ADD13ROTATEDRECTD13*%

G04:AMPARAMS|DCode=14|XSize=2.2mm|YSize=2.4mm|CornerRadius=0mm|HoleSize=0mm|Usage=FLASHONLY|Rotation=30.000|XOffset=0mm|YOffset=0mm|HoleType=Round|Shape=Rectangle|*
%AMROTATEDRECTD14*
4,1,4,-0.3526,-1.5892,-1.5526,0.4892,0.3526,1.5892,1.5526,-0.4892,-0.3526,-1.5892,0.0*
%
%ADD14ROTATEDRECTD14*%

G04:AMPARAMS|DCode=15|XSize=1.1mm|YSize=2.4mm|CornerRadius=0mm|HoleSize=0mm|Usage=FLASHONLY|Rotation=40.000|XOffset=0mm|YOffset=0mm|HoleType=Round|Shape=Rectangle|*
%AMROTATEDRECTD15*
4,1,4,0.3500,-1.2728,-1.1927,0.5657,-0.3500,1.2728,1.1927,-0.5657,0.3500,-1.2728,0.0*
%
%ADD15ROTATEDRECTD15*%

G04:AMPARAMS|DCode=16|XSize=2.2mm|YSize=2.4mm|CornerRadius=0mm|HoleSize=0mm|Usage=FLASHONLY|Rotation=40.000|XOffset=0mm|YOffset=0mm|HoleType=Round|Shape=Rectangle|*
%AMROTATEDRECTD16*
4,1,4,-0.0713,-1.6263,-1.6140,0.2122,0.0713,1.6263,1.6140,-0.2122,-0.0713,-1.6263,0.0*
%
%ADD16ROTATEDRECTD16*%

G04:AMPARAMS|DCode=17|XSize=2.2mm|YSize=2.4mm|CornerRadius=0mm|HoleSize=0mm|Usage=FLASHONLY|Rotation=238.000|XOffset=0mm|YOffset=0mm|HoleType=Round|Shape=Rectangle|*
%AMROTATEDRECTD17*
4,1,4,-0.4348,1.5688,1.6006,0.2969,0.4348,-1.5688,-1.6006,-0.2969,-0.4348,1.5688,0.0*
%
%ADD17ROTATEDRECTD17*%

G04:AMPARAMS|DCode=18|XSize=1.1mm|YSize=2.4mm|CornerRadius=0mm|HoleSize=0mm|Usage=FLASHONLY|Rotation=238.000|XOffset=0mm|YOffset=0mm|HoleType=Round|Shape=Rectangle|*
%AMROTATEDRECTD18*
4,1,4,-0.7262,1.1023,1.3091,-0.1695,0.7262,-1.1023,-1.3091,0.1695,-0.7262,1.1023,0.0*
%
%ADD18ROTATEDRECTD18*%

G04:AMPARAMS|DCode=19|XSize=1.1mm|YSize=2.4mm|CornerRadius=0mm|HoleSize=0mm|Usage=FLASHONLY|Rotation=77.000|XOffset=0mm|YOffset=0mm|HoleType=Round|Shape=Rectangle|*
%AMROTATEDRECTD19*
4,1,4,1.0455,-0.8058,-1.2930,-0.2660,-1.0455,0.8058,1.2930,0.2660,1.0455,-0.8058,0.0*
%
%ADD19ROTATEDRECTD19*%

G04:AMPARAMS|DCode=20|XSize=2.2mm|YSize=2.4mm|CornerRadius=0mm|HoleSize=0mm|Usage=FLASHONLY|Rotation=77.000|XOffset=0mm|YOffset=0mm|HoleType=Round|Shape=Rectangle|*
%AMROTATEDRECTD20*
4,1,4,0.9218,-1.3418,-1.4167,-0.8019,-0.9218,1.3418,1.4167,0.8019,0.9218,-1.3418,0.0*
%
%ADD20ROTATEDRECTD20*%

G04:AMPARAMS|DCode=21|XSize=1.1mm|YSize=2.4mm|CornerRadius=0mm|HoleSize=0mm|Usage=FLASHONLY|Rotation=93.000|XOffset=0mm|YOffset=0mm|HoleType=Round|Shape=Rectangle|*
%AMROTATEDRECTD21*
4,1,4,1.2271,-0.4864,-1.1696,-0.6120,-1.2271,0.4864,1.1696,0.6120,1.2271,-0.4864,0.0*
%
%ADD21ROTATEDRECTD21*%

G04:AMPARAMS|DCode=22|XSize=2.2mm|YSize=2.4mm|CornerRadius=0mm|HoleSize=0mm|Usage=FLASHONLY|Rotation=93.000|XOffset=0mm|YOffset=0mm|HoleType=Round|Shape=Rectangle|*
%AMROTATEDRECTD22*
4,1,4,1.2559,-1.0357,-1.1408,-1.1613,-1.2559,1.0357,1.1408,1.1613,1.2559,-1.0357,0.0*
%
%ADD22ROTATEDRECTD22*%

G04:AMPARAMS|DCode=23|XSize=2.2mm|YSize=2.4mm|CornerRadius=0mm|HoleSize=0mm|Usage=FLASHONLY|Rotation=290.000|XOffset=0mm|YOffset=0mm|HoleType=Round|Shape=Rectangle|*
%AMROTATEDRECTD23*
4,1,4,-1.5038,0.6232,0.7514,1.4441,1.5038,-0.6232,-0.7514,-1.4441,-1.5038,0.6232,0.0*
%
%ADD23ROTATEDRECTD23*%

G04:AMPARAMS|DCode=24|XSize=1.1mm|YSize=2.4mm|CornerRadius=0mm|HoleSize=0mm|Usage=FLASHONLY|Rotation=290.000|XOffset=0mm|YOffset=0mm|HoleType=Round|Shape=Rectangle|*
%AMROTATEDRECTD24*
4,1,4,-1.3157,0.1064,0.9395,0.9273,1.3157,-0.1064,-0.9395,-0.9273,-1.3157,0.1064,0.0*
%
%ADD24ROTATEDRECTD24*%

G04:AMPARAMS|DCode=25|XSize=1.1mm|YSize=2.4mm|CornerRadius=0mm|HoleSize=0mm|Usage=FLASHONLY|Rotation=129.000|XOffset=0mm|YOffset=0mm|HoleType=Round|Shape=Rectangle|*
%AMROTATEDRECTD25*
4,1,4,1.2787,0.3277,-0.5865,-1.1826,-1.2787,-0.3277,0.5865,1.1826,1.2787,0.3277,0.0*
%
%ADD25ROTATEDRECTD25*%

G04:AMPARAMS|DCode=26|XSize=2.2mm|YSize=2.4mm|CornerRadius=0mm|HoleSize=0mm|Usage=FLASHONLY|Rotation=129.000|XOffset=0mm|YOffset=0mm|HoleType=Round|Shape=Rectangle|*
%AMROTATEDRECTD26*
4,1,4,1.6248,-0.0997,-0.2403,-1.6100,-1.6248,0.0997,0.2403,1.6100,1.6248,-0.0997,0.0*
%
%ADD26ROTATEDRECTD26*%

G04:AMPARAMS|DCode=27|XSize=1.1mm|YSize=2.4mm|CornerRadius=0mm|HoleSize=0mm|Usage=FLASHONLY|Rotation=147.000|XOffset=0mm|YOffset=0mm|HoleType=Round|Shape=Rectangle|*
%AMROTATEDRECTD27*
4,1,4,1.1148,0.7068,-0.1923,-1.3060,-1.1148,-0.7068,0.1923,1.3060,1.1148,0.7068,0.0*
%
%ADD27ROTATEDRECTD27*%

G04:AMPARAMS|DCode=28|XSize=2.2mm|YSize=2.4mm|CornerRadius=0mm|HoleSize=0mm|Usage=FLASHONLY|Rotation=147.000|XOffset=0mm|YOffset=0mm|HoleType=Round|Shape=Rectangle|*
%AMROTATEDRECTD28*
4,1,4,1.5761,0.4073,0.2690,-1.6055,-1.5761,-0.4073,-0.2690,1.6055,1.5761,0.4073,0.0*
%
%ADD28ROTATEDRECTD28*%

G04:AMPARAMS|DCode=29|XSize=2.2mm|YSize=2.4mm|CornerRadius=0mm|HoleSize=0mm|Usage=FLASHONLY|Rotation=347.000|XOffset=0mm|YOffset=0mm|HoleType=Round|Shape=Rectangle|*
%AMROTATEDRECTD29*
4,1,4,-1.3418,-0.9218,-0.8019,1.4167,1.3418,0.9218,0.8019,-1.4167,-1.3418,-0.9218,0.0*
%
%ADD29ROTATEDRECTD29*%

G04:AMPARAMS|DCode=30|XSize=1.1mm|YSize=2.4mm|CornerRadius=0mm|HoleSize=0mm|Usage=FLASHONLY|Rotation=347.000|XOffset=0mm|YOffset=0mm|HoleType=Round|Shape=Rectangle|*
%AMROTATEDRECTD30*
4,1,4,-0.8058,-1.0455,-0.2660,1.2930,0.8058,1.0455,0.2660,-1.2930,-0.8058,-1.0455,0.0*
%
%ADD30ROTATEDRECTD30*%

G04:AMPARAMS|DCode=31|XSize=1.1mm|YSize=2.4mm|CornerRadius=0mm|HoleSize=0mm|Usage=FLASHONLY|Rotation=184.000|XOffset=0mm|YOffset=0mm|HoleType=Round|Shape=Rectangle|*
%AMROTATEDRECTD31*
4,1,4,0.4649,1.2354,0.6324,-1.1587,-0.4649,-1.2354,-0.6324,1.1587,0.4649,1.2354,0.0*
%
%ADD31ROTATEDRECTD31*%

G04:AMPARAMS|DCode=32|XSize=2.2mm|YSize=2.4mm|CornerRadius=0mm|HoleSize=0mm|Usage=FLASHONLY|Rotation=184.000|XOffset=0mm|YOffset=0mm|HoleType=Round|Shape=Rectangle|*
%AMROTATEDRECTD32*
4,1,4,1.0136,1.2738,1.1810,-1.1203,-1.0136,-1.2738,-1.1810,1.1203,1.0136,1.2738,0.0*
%
%ADD32ROTATEDRECTD32*%

G04:AMPARAMS|DCode=33|XSize=1.1mm|YSize=2.4mm|CornerRadius=0mm|HoleSize=0mm|Usage=FLASHONLY|Rotation=200.000|XOffset=0mm|YOffset=0mm|HoleType=Round|Shape=Rectangle|*
%AMROTATEDRECTD33*
4,1,4,0.1064,1.3157,0.9273,-0.9395,-0.1064,-1.3157,-0.9273,0.9395,0.1064,1.3157,0.0*
%
%ADD33ROTATEDRECTD33*%

G04:AMPARAMS|DCode=34|XSize=2.2mm|YSize=2.4mm|CornerRadius=0mm|HoleSize=0mm|Usage=FLASHONLY|Rotation=200.000|XOffset=0mm|YOffset=0mm|HoleType=Round|Shape=Rectangle|*
%AMROTATEDRECTD34*
4,1,4,0.6232,1.5038,1.4441,-0.7514,-0.6232,-1.5038,-1.4441,0.7514,0.6232,1.5038,0.0*
%
%ADD34ROTATEDRECTD34*%

G04:AMPARAMS|DCode=35|XSize=1.1mm|YSize=2.4mm|CornerRadius=0mm|HoleSize=0mm|Usage=FLASHONLY|Rotation=237.000|XOffset=0mm|YOffset=0mm|HoleType=Round|Shape=Rectangle|*
%AMROTATEDRECTD35*
4,1,4,-0.7068,1.1148,1.3060,-0.1923,0.7068,-1.1148,-1.3060,0.1923,-0.7068,1.1148,0.0*
%
%ADD35ROTATEDRECTD35*%

G04:AMPARAMS|DCode=36|XSize=2.2mm|YSize=2.4mm|CornerRadius=0mm|HoleSize=0mm|Usage=FLASHONLY|Rotation=237.000|XOffset=0mm|YOffset=0mm|HoleType=Round|Shape=Rectangle|*
%AMROTATEDRECTD36*
4,1,4,-0.4073,1.5761,1.6055,0.2690,0.4073,-1.5761,-1.6055,-0.2690,-0.4073,1.5761,0.0*
%
%ADD36ROTATEDRECTD36*%

G04:AMPARAMS|DCode=37|XSize=1.1mm|YSize=2.4mm|CornerRadius=0mm|HoleSize=0mm|Usage=FLASHONLY|Rotation=255.000|XOffset=0mm|YOffset=0mm|HoleType=Round|Shape=Rectangle|*
%AMROTATEDRECTD37*
4,1,4,-1.0168,0.8418,1.3015,0.2207,1.0168,-0.8418,-1.3015,-0.2207,-1.0168,0.8418,0.0*
%
%ADD37ROTATEDRECTD37*%

G04:AMPARAMS|DCode=38|XSize=2.2mm|YSize=2.4mm|CornerRadius=0mm|HoleSize=0mm|Usage=FLASHONLY|Rotation=255.000|XOffset=0mm|YOffset=0mm|HoleType=Round|Shape=Rectangle|*
%AMROTATEDRECTD38*
4,1,4,-0.8744,1.3731,1.4438,0.7519,0.8744,-1.3731,-1.4438,-0.7519,-0.8744,1.3731,0.0*
%
%ADD38ROTATEDRECTD38*%

G04:AMPARAMS|DCode=39|XSize=1.1mm|YSize=2.4mm|CornerRadius=0mm|HoleSize=0mm|Usage=FLASHONLY|Rotation=311.000|XOffset=0mm|YOffset=0mm|HoleType=Round|Shape=Rectangle|*
%AMROTATEDRECTD39*
4,1,4,-1.2665,-0.3722,0.5448,1.2024,1.2665,0.3722,-0.5448,-1.2024,-1.2665,-0.3722,0.0*
%
%ADD39ROTATEDRECTD39*%

G04:AMPARAMS|DCode=40|XSize=2.2mm|YSize=2.4mm|CornerRadius=0mm|HoleSize=0mm|Usage=FLASHONLY|Rotation=311.000|XOffset=0mm|YOffset=0mm|HoleType=Round|Shape=Rectangle|*
%AMROTATEDRECTD40*
4,1,4,-1.6273,0.0429,0.1840,1.6175,1.6273,-0.0429,-0.1840,-1.6175,-1.6273,0.0429,0.0*
%
%ADD40ROTATEDRECTD40*%

G04:AMPARAMS|DCode=41|XSize=0.9mm|YSize=0.7mm|CornerRadius=0mm|HoleSize=0mm|Usage=FLASHONLY|Rotation=175.000|XOffset=0mm|YOffset=0mm|HoleType=Round|Shape=Rectangle|*
%AMROTATEDRECTD41*
4,1,4,0.4788,0.3095,0.4178,-0.3879,-0.4788,-0.3095,-0.4178,0.3879,0.4788,0.3095,0.0*
%
%ADD41ROTATEDRECTD41*%

G04:AMPARAMS|DCode=42|XSize=0.9mm|YSize=0.7mm|CornerRadius=0mm|HoleSize=0mm|Usage=FLASHONLY|Rotation=325.000|XOffset=0mm|YOffset=0mm|HoleType=Round|Shape=Rectangle|*
%AMROTATEDRECTD42*
4,1,4,-0.5694,-0.0286,-0.1679,0.5448,0.5694,0.0286,0.1679,-0.5448,-0.5694,-0.0286,0.0*
%
%ADD42ROTATEDRECTD42*%

G04:AMPARAMS|DCode=43|XSize=0.9mm|YSize=0.7mm|CornerRadius=0mm|HoleSize=0mm|Usage=FLASHONLY|Rotation=345.000|XOffset=0mm|YOffset=0mm|HoleType=Round|Shape=Rectangle|*
%AMROTATEDRECTD43*
4,1,4,-0.5252,-0.2216,-0.3441,0.4546,0.5252,0.2216,0.3441,-0.4546,-0.5252,-0.2216,0.0*
%
%ADD43ROTATEDRECTD43*%

G04:AMPARAMS|DCode=44|XSize=0.9mm|YSize=0.7mm|CornerRadius=0mm|HoleSize=0mm|Usage=FLASHONLY|Rotation=15.000|XOffset=0mm|YOffset=0mm|HoleType=Round|Shape=Rectangle|*
%AMROTATEDRECTD44*
4,1,4,-0.3441,-0.4546,-0.5252,0.2216,0.3441,0.4546,0.5252,-0.2216,-0.3441,-0.4546,0.0*
%
%ADD44ROTATEDRECTD44*%

G04:AMPARAMS|DCode=45|XSize=0.9mm|YSize=0.7mm|CornerRadius=0mm|HoleSize=0mm|Usage=FLASHONLY|Rotation=35.000|XOffset=0mm|YOffset=0mm|HoleType=Round|Shape=Rectangle|*
%AMROTATEDRECTD45*
4,1,4,-0.1679,-0.5448,-0.5694,0.0286,0.1679,0.5448,0.5694,-0.0286,-0.1679,-0.5448,0.0*
%
%ADD45ROTATEDRECTD45*%

G04:AMPARAMS|DCode=46|XSize=0.9mm|YSize=0.7mm|CornerRadius=0mm|HoleSize=0mm|Usage=FLASHONLY|Rotation=70.000|XOffset=0mm|YOffset=0mm|HoleType=Round|Shape=Rectangle|*
%AMROTATEDRECTD46*
4,1,4,0.1750,-0.5426,-0.4828,-0.3032,-0.1750,0.5426,0.4828,0.3032,0.1750,-0.5426,0.0*
%
%ADD46ROTATEDRECTD46*%

%ADD47R,1.5000X2.6000*%
%ADD48R,0.7000X0.9000*%
G04:AMPARAMS|DCode=49|XSize=0.9mm|YSize=0.7mm|CornerRadius=0mm|HoleSize=0mm|Usage=FLASHONLY|Rotation=125.000|XOffset=0mm|YOffset=0mm|HoleType=Round|Shape=Rectangle|*
%AMROTATEDRECTD49*
4,1,4,0.5448,-0.1679,-0.0286,-0.5694,-0.5448,0.1679,0.0286,0.5694,0.5448,-0.1679,0.0*
%
%ADD49ROTATEDRECTD49*%

G04:AMPARAMS|DCode=50|XSize=0.9mm|YSize=0.7mm|CornerRadius=0mm|HoleSize=0mm|Usage=FLASHONLY|Rotation=140.000|XOffset=0mm|YOffset=0mm|HoleType=Round|Shape=Rectangle|*
%AMROTATEDRECTD50*
4,1,4,0.5697,-0.0211,0.1197,-0.5574,-0.5697,0.0211,-0.1197,0.5574,0.5697,-0.0211,0.0*
%
%ADD50ROTATEDRECTD50*%

G04:AMPARAMS|DCode=51|XSize=0.9mm|YSize=0.7mm|CornerRadius=0mm|HoleSize=0mm|Usage=FLASHONLY|Rotation=230.000|XOffset=0mm|YOffset=0mm|HoleType=Round|Shape=Rectangle|*
%AMROTATEDRECTD51*
4,1,4,0.0211,0.5697,0.5574,0.1197,-0.0211,-0.5697,-0.5574,-0.1197,0.0211,0.5697,0.0*
%
%ADD51ROTATEDRECTD51*%

G04:AMPARAMS|DCode=52|XSize=0.9mm|YSize=0.7mm|CornerRadius=0mm|HoleSize=0mm|Usage=FLASHONLY|Rotation=245.000|XOffset=0mm|YOffset=0mm|HoleType=Round|Shape=Rectangle|*
%AMROTATEDRECTD52*
4,1,4,-0.1270,0.5558,0.5074,0.2599,0.1270,-0.5558,-0.5074,-0.2599,-0.1270,0.5558,0.0*
%
%ADD52ROTATEDRECTD52*%

G04:AMPARAMS|DCode=53|XSize=1.5mm|YSize=2.6mm|CornerRadius=0mm|HoleSize=0mm|Usage=FLASHONLY|Rotation=305.000|XOffset=0mm|YOffset=0mm|HoleType=Round|Shape=Rectangle|*
%AMROTATEDRECTD53*
4,1,4,-1.4951,-0.1313,0.6347,1.3600,1.4951,0.1313,-0.6347,-1.3600,-1.4951,-0.1313,0.0*
%
%ADD53ROTATEDRECTD53*%

G04:AMPARAMS|DCode=54|XSize=1.5mm|YSize=2.6mm|CornerRadius=0mm|HoleSize=0mm|Usage=FLASHONLY|Rotation=230.000|XOffset=0mm|YOffset=0mm|HoleType=Round|Shape=Rectangle|*
%AMROTATEDRECTD54*
4,1,4,-0.5138,1.4102,1.4779,-0.2611,0.5138,-1.4102,-1.4779,0.2611,-0.5138,1.4102,0.0*
%
%ADD54ROTATEDRECTD54*%

G04:AMPARAMS|DCode=55|XSize=0.9mm|YSize=0.7mm|CornerRadius=0mm|HoleSize=0mm|Usage=FLASHONLY|Rotation=335.000|XOffset=0mm|YOffset=0mm|HoleType=Round|Shape=Rectangle|*
%AMROTATEDRECTD55*
4,1,4,-0.5558,-0.1270,-0.2599,0.5074,0.5558,0.1270,0.2599,-0.5074,-0.5558,-0.1270,0.0*
%
%ADD55ROTATEDRECTD55*%

G04:AMPARAMS|DCode=56|XSize=0.9mm|YSize=0.7mm|CornerRadius=0mm|HoleSize=0mm|Usage=FLASHONLY|Rotation=30.000|XOffset=0mm|YOffset=0mm|HoleType=Round|Shape=Rectangle|*
%AMROTATEDRECTD56*
4,1,4,-0.2147,-0.5281,-0.5647,0.0781,0.2147,0.5281,0.5647,-0.0781,-0.2147,-0.5281,0.0*
%
%ADD56ROTATEDRECTD56*%

%ADD57C,1.5000*%
%ADD58P,2.1213X4X170.0*%
%ADD59P,2.1213X4X195.0*%
%ADD60C,3.5000*%
%ADD61P,2.1213X4X335.0*%
%ADD62P,2.1213X4X305.0*%
%ADD63C,3.0000*%
%ADD64P,2.1213X4X115.0*%
%ADD65P,2.1213X4X122.0*%
%ADD66P,2.1213X4X312.0*%
%ADD67P,2.1213X4X101.0*%
%ADD68C,1.2700*%
D10*
X124358Y-318494D02*
G03*
X285765Y-187731I-124356J318496D01*
G01*
X-223542Y-295108D02*
G03*
X-144981Y-340648I223542J295104D01*
G01*
X-328413Y87997D02*
G03*
X-288334Y-180175I328415J-87999D01*
G01*
X-256000Y-222530D02*
G03*
X-153489Y-302102I255223J222982D01*
G01*
X-103930Y-396982D02*
G03*
X110557Y-395189I103932J396984D01*
G01*
X-110145Y253890D02*
X-106394Y250139D01*
Y247958D02*
Y250139D01*
X285765Y-187731D02*
X286045D01*
X293454Y-195139D02*
X299350D01*
X124358Y-380520D02*
Y-318494D01*
X-223542Y-295108D02*
X-218363Y-289929D01*
X-144981Y-340648D02*
X-104709Y-380920D01*
X-335992Y95576D02*
X-328413Y87997D01*
X-153489Y-302102D02*
X-153489Y-302102D01*
X-258340Y-222530D02*
X-256000D01*
X-153489Y-302102D02*
X-148608Y-306983D01*
X109626Y-395251D02*
X124358Y-380520D01*
X286045Y-187731D02*
X293454Y-195139D01*
X-104709Y-396691D02*
Y-380920D01*
X-373123Y95576D02*
X-335992D01*
X-403193Y125646D02*
X-373123Y95576D01*
X-403193Y125646D02*
Y142048D01*
X-387398Y157843D02*
X-378860D01*
X-403193Y142048D02*
X-387398Y157843D01*
X-305297Y-195446D02*
X-289180Y-179329D01*
X-305297Y-201973D02*
Y-195446D01*
Y-201973D02*
X-304947Y-201624D01*
X-300111Y-211297D02*
Y-206460D01*
X-304947Y-201624D02*
X-300111Y-206460D01*
Y-211297D02*
X-276791Y-234617D01*
X-270427D01*
X-258340Y-222530D01*
X-148608Y-309335D02*
Y-306983D01*
Y-309335D02*
X-145380Y-312562D01*
X-269243Y59968D02*
X-265512Y56237D01*
X-59968Y-269243D02*
Y-257674D01*
X-309327Y-96170D02*
X-303935D01*
X186944Y-260394D02*
Y-258523D01*
X187947Y257085D02*
X189618Y258755D01*
X121844Y295126D02*
Y297726D01*
X302634Y99527D02*
X306240D01*
X-39993Y-273854D02*
X-8338Y-305509D01*
X-271960Y-190428D02*
Y-189592D01*
X-265147Y197072D02*
Y199802D01*
X5794Y-331954D02*
X6662Y-331086D01*
X331345Y-5185D02*
X331954Y-5794D01*
X180134Y-206671D02*
X182485D01*
X-206570Y-182401D02*
X-200905D01*
X-224698Y-109592D02*
X-224698Y-109592D01*
X-224698Y-109592D02*
X-224698D01*
X-218653Y121201D02*
Y121407D01*
X34794Y-249382D02*
Y-247569D01*
X174591Y-178966D02*
X176779Y-176779D01*
X218657Y-121452D02*
Y-121204D01*
X224700Y109592D02*
X224700D01*
X224699Y109593D02*
X224700Y109592D01*
X121202Y218654D02*
X121449D01*
X247569Y34794D02*
X249547D01*
D11*
X383765Y-13401D02*
G03*
X360715Y139177I-383473J20097D01*
G01*
X372091Y-26019D02*
G03*
X340752Y151713I-372091J26019D01*
G01*
X395574Y18364D02*
G03*
X376618Y122371I-395574J-18364D01*
G01*
X109588Y-294255D02*
G03*
X150186Y-275753I-109590J294253D01*
G01*
X-323566Y157814D02*
G03*
X-337211Y126051I323566J-157814D01*
G01*
X279711Y-163765D02*
G03*
X317480Y-65292I-279708J163763D01*
G01*
X301557Y-159334D02*
G03*
X319785Y-118582I-301553J159334D01*
G01*
X-129574Y243693D02*
G03*
X-184680Y205108I129574J-243693D01*
G01*
X-273314Y38412D02*
G03*
X-274488Y-28850I273314J-38412D01*
G01*
X-192564Y-199406D02*
G03*
X-142772Y-237612I192564J199406D01*
G01*
X48098Y-272775D02*
G03*
X108226Y-254964I-48098J272775D01*
G01*
X246341Y-126667D02*
G03*
X269900Y-62311I-246341J126667D01*
G01*
X249864Y121867D02*
G03*
X209357Y182903I-249864J-121867D01*
G01*
X411029Y35961D02*
G03*
X398704Y106818I-412497J-35247D01*
G01*
X-315752Y-102594D02*
G03*
X-271960Y-190428I315754J102592D01*
G01*
X-271958Y-190431D02*
G03*
X-258014Y-208936I271960J190429D01*
G01*
X-102595Y-315754D02*
G03*
X5794Y-331954I102597J315752D01*
G01*
X-258014Y-208936D02*
G03*
X-102595Y-315754I258016J208934D01*
G01*
X5794Y-331954D02*
G03*
X195148Y-268598I-5792J331952D01*
G01*
X-317493Y97067D02*
G03*
X-315752Y-102594I317495J-97069D01*
G01*
X-265147Y199802D02*
G03*
X-317493Y97067I265148J-199804D01*
G01*
X-262303Y203521D02*
G03*
X-265147Y199802I262305J-203523D01*
G01*
X195148Y-268598D02*
G03*
X270703Y-192216I-195146J268596D01*
G01*
D02*
G03*
X271963Y-190430I-270701J192214D01*
G01*
D02*
G03*
X331954Y-5794I-271961J190428D01*
G01*
D02*
G03*
X315754Y102595I-331952J5792D01*
G01*
D02*
G03*
X195146Y268595I-315752J-102597D01*
G01*
X195148Y268593D02*
G03*
X129726Y305608I-195146J-268595D01*
G01*
X282542Y-243433D02*
G03*
X325066Y-182819I-282540J243435D01*
G01*
X291156Y-90181D02*
G03*
X302390Y-38267I-291158J90179D01*
G01*
X-101682Y228384D02*
G03*
X105653Y226577I101684J-228386D01*
G01*
X-204870Y187523D02*
X-196493Y195900D01*
X-193264D01*
X-208556Y183837D02*
X-204870Y187523D01*
X-231020Y183837D02*
X-208556D01*
X-106394Y247958D02*
X-101682Y243246D01*
X383765Y-13401D02*
X390461Y-20097D01*
X359151Y137613D02*
X378245Y156707D01*
X372091Y-26019D02*
X389871Y-43800D01*
X395574Y14005D02*
Y18364D01*
X376618Y122371D02*
X383173Y128925D01*
X257164Y-179199D02*
X257686D01*
X238847Y-182014D02*
X246204Y-189372D01*
X209668Y-182014D02*
X238847D01*
X-361820Y125550D02*
X-337382D01*
X-218363Y-289929D02*
Y-284601D01*
X57755Y-359554D02*
X63683Y-365482D01*
X153143Y-275951D02*
Y-274508D01*
Y-275951D02*
X154024Y-276832D01*
X295778Y-96422D02*
Y-96104D01*
X304091Y-37779D02*
X316395D01*
X276449Y-164297D02*
X278346Y-162400D01*
X273436Y-164297D02*
X276449D01*
X312865Y-60677D02*
X316154Y-63966D01*
X312157Y-60677D02*
X312865D01*
X320059Y-117989D02*
X325976D01*
X302002Y-160234D02*
X302481D01*
X270943Y-237254D02*
X277122Y-243433D01*
X325976Y-117989D02*
X326030Y-118043D01*
X339460D01*
X-183228Y-265292D02*
X-178941D01*
X-156056Y-259721D02*
Y-252504D01*
X-273412Y224673D02*
X-247374Y250711D01*
X-241075D01*
X97471Y-365482D02*
X97833Y-365119D01*
X78683Y-365482D02*
X97471D01*
X-186025Y-262494D02*
X-183228Y-265292D01*
X-158468Y-271111D02*
X-153200Y-276379D01*
X-387547Y133975D02*
X-370245D01*
X-361820Y125550D01*
X-148448Y-323952D02*
X-98141Y-374259D01*
X-150098Y-323952D02*
X-148448D01*
X-154253Y-319798D02*
X-150098Y-323952D01*
X-164572Y-319798D02*
X-154253D01*
X-237416Y140170D02*
X-218653Y121407D01*
X-265512Y56237D02*
X-259027D01*
X-241862Y-105751D02*
X-235541D01*
X-245703Y-109592D02*
X-241862Y-105751D01*
X-252705Y-109592D02*
X-245703D01*
X-235541Y-105751D02*
X-231700Y-109592D01*
X26158Y-274463D02*
Y-258017D01*
X34794Y-249382D01*
X249547Y34794D02*
X258190Y26150D01*
X274333D01*
X235136Y106158D02*
X242270D01*
X231702Y109592D02*
X235136Y106158D01*
X242270D02*
X245704Y109592D01*
X252705D01*
X121449Y218654D02*
X140100Y237305D01*
X-247668Y200485D02*
X-231020Y183837D01*
X-265147Y197072D02*
X-256272Y188197D01*
X-312078Y91652D02*
X-304125D01*
X-271960Y-189592D02*
X-262348Y-179981D01*
X-98546Y-311706D02*
Y-302386D01*
X6662Y-331086D02*
Y-318280D01*
X319988Y-5185D02*
X331345D01*
X189618Y258755D02*
Y263067D01*
X306240Y99527D02*
X309307Y102595D01*
X-263927Y107137D02*
X-248279Y122785D01*
X-299247Y107137D02*
X-263927D01*
X-300243Y106141D02*
X-299247Y107137D01*
X-273260Y-66161D02*
Y-46622D01*
X-288779Y-81681D02*
X-273260Y-66161D01*
X-307817Y-81681D02*
X-288779D01*
X-245694Y-142435D02*
Y-128856D01*
X-270952Y-167693D02*
X-245694Y-142435D01*
X-122907Y-248470D02*
X-112642Y-258736D01*
Y-297256D02*
Y-258736D01*
X-8338Y-318280D02*
Y-305509D01*
X128856Y-245694D02*
X153223D01*
X174656Y-267127D01*
X274295Y-45434D02*
X278934Y-40795D01*
Y-24404D01*
X273260Y46622D02*
Y67373D01*
X293697D01*
X306516Y80192D01*
Y85039D01*
X193321Y241326D02*
X199438Y247443D01*
X122907Y248470D02*
Y261034D01*
X135438Y273565D01*
Y288786D01*
X383018Y128925D02*
X386932Y132839D01*
X403351Y6228D02*
X407794D01*
X402072Y-20097D02*
X403383Y-18786D01*
X340723Y151741D02*
X369557Y180575D01*
X383018Y128925D02*
X383173D01*
X395574Y14005D02*
X403351Y6228D01*
X358494Y137613D02*
Y137613D01*
X359151D01*
X390461Y-20097D02*
X402072D01*
X389871Y-43800D02*
X398973D01*
X376948Y-143856D02*
X381330D01*
X350491Y-51570D02*
X377318D01*
X394562Y-68814D01*
X-274389Y-221019D02*
X-270097D01*
X-408081Y54619D02*
Y60098D01*
X-418693Y44006D02*
X-408081Y54619D01*
X-317089Y170874D02*
Y175913D01*
X-292368Y200634D01*
X291504Y207942D02*
X313058Y186387D01*
Y172426D02*
Y186387D01*
X244519Y253207D02*
X253605D01*
X274296Y232516D01*
X320558Y140667D02*
Y159436D01*
Y140667D02*
X333288Y127937D01*
X278934Y-24404D02*
X309409D01*
X309550Y-24262D01*
X314546D01*
X318680Y-20128D01*
X-77173Y-309524D02*
Y-284468D01*
X-85505Y-276135D02*
X-77173Y-284468D01*
X-174369Y-310001D02*
X-164572Y-319798D01*
X-197550Y-176776D02*
X-195280D01*
X-197550D02*
X-188772Y-167998D01*
X169606Y-187275D02*
X174387Y-192057D01*
Y-198392D02*
Y-192057D01*
X-387468Y-41947D02*
Y20306D01*
X-397898Y-77542D02*
X-370672D01*
X-418693Y44006D02*
X-402314Y27627D01*
Y-73126D02*
Y27627D01*
Y-73126D02*
X-397898Y-77542D01*
X-383744Y-53951D02*
Y-45671D01*
X-387468Y-41947D02*
X-383744Y-45671D01*
X12027Y-359554D02*
X57755D01*
X-12466Y-199407D02*
Y-196541D01*
X39225Y-199407D02*
X43488Y-195144D01*
X-115001Y-193898D02*
X-97176Y-211724D01*
X-27649D01*
X-12466Y-199407D02*
X39225D01*
X-38118Y-232368D02*
X-36112Y-230362D01*
X68956D01*
X84222Y-215096D01*
Y-201781D01*
X-69156Y-188340D02*
X-62338Y-181522D01*
X28245D01*
X31670Y-184947D01*
X34108Y-182509D01*
X105500D01*
X109447Y-186456D01*
X-270097Y-221019D02*
X-258014Y-208936D01*
X-102595Y-315754D02*
X-98546Y-311706D01*
X-315752Y-102594D02*
X-309327Y-96170D01*
X-317493Y97067D02*
X-312078Y91652D01*
X186944Y-260394D02*
X195148Y-268598D01*
X257686Y-179199D02*
X270703Y-192216D01*
X121844Y297726D02*
X129726Y305608D01*
X189618Y263067D02*
X195146Y268595D01*
X309307Y102595D02*
X315754D01*
X-183919Y-224641D02*
X-182553D01*
X-160774Y-271111D02*
X-158468D01*
X-167446Y-264439D02*
Y-258740D01*
Y-264439D02*
X-160774Y-271111D01*
X-185056Y-241130D02*
X-184236D01*
X-205191Y-244843D02*
X-200947D01*
X-183919Y-224641D02*
X-156056Y-252504D01*
X-196142Y-247172D02*
X-186025Y-257289D01*
Y-262494D02*
Y-257289D01*
X-205191Y-244843D02*
X-202862Y-247172D01*
X-196142D01*
X-27649Y-211724D02*
X-12466Y-196541D01*
X277122Y-243433D02*
X282542D01*
X291156Y-91800D02*
X295778Y-96422D01*
X291156Y-91800D02*
Y-90181D01*
X302481Y-160234D02*
X325066Y-182819D01*
X193321Y195236D02*
Y241326D01*
X218657Y-121452D02*
X237305Y-140100D01*
X35481Y-387406D02*
X38539Y-384348D01*
X-52175Y-387487D02*
X-45619D01*
X-17973Y-359841D01*
X-17971Y-359839D01*
X-98141Y-374259D02*
X-84546D01*
X28631Y-384348D02*
X38539D01*
X-84546Y-374259D02*
X-59593Y-399212D01*
X13767D01*
X28631Y-384348D01*
X-185056Y-241130D02*
X-167446Y-258740D01*
X-17973Y-359841D02*
Y-359554D01*
X180134Y-206671D02*
Y-204139D01*
X198189Y-193494D02*
X209668Y-182014D01*
X-200905Y-182401D02*
X-195280Y-176776D01*
X-85505Y-276135D02*
Y-234924D01*
X-59968Y-257674D02*
X-47702Y-245408D01*
X-259027Y56237D02*
X-246200Y43410D01*
X-231700Y-109592D02*
X-224698D01*
X-101682Y228384D02*
Y243246D01*
X174387Y-198392D02*
X180134Y-204139D01*
X224700Y109592D02*
X231702D01*
D12*
X-313773Y-214346D02*
G03*
X-155442Y-346750I313775J214348D01*
G01*
D13*
X-130647Y245469D02*
D03*
D14*
X-112894Y255719D02*
D03*
D15*
X-192658Y192753D02*
D03*
X179470Y-200931D02*
D03*
D16*
X-176954Y205930D02*
D03*
X195174Y-187754D02*
D03*
D17*
X-248279Y122785D02*
D03*
D18*
X-237416Y140170D02*
D03*
D19*
X-272617Y45352D02*
D03*
D20*
X-268006Y65327D02*
D03*
D21*
X-273547Y-41130D02*
D03*
X274333Y26150D02*
D03*
D22*
X-274620Y-20658D02*
D03*
X273260Y46622D02*
D03*
D23*
X-245694Y-128856D02*
D03*
X254586Y104424D02*
D03*
D24*
X-252705Y-109592D02*
D03*
X247575Y123688D02*
D03*
D25*
X-191000Y-192826D02*
D03*
D26*
X-203901Y-176894D02*
D03*
D27*
X-127520Y-245475D02*
D03*
X140100Y237305D02*
D03*
D28*
X-144713Y-234310D02*
D03*
X122907Y248470D02*
D03*
D29*
X-39993Y-273854D02*
D03*
D30*
X-59968Y-269243D02*
D03*
D31*
X41122Y-273417D02*
D03*
D32*
X20672Y-274847D02*
D03*
D33*
X123688Y-247575D02*
D03*
D34*
X104424Y-254586D02*
D03*
D35*
X245475Y-127520D02*
D03*
D36*
X234310Y-144713D02*
D03*
D37*
X272871Y-50746D02*
D03*
D38*
X267565Y-70547D02*
D03*
D39*
X191341Y190838D02*
D03*
D40*
X204790Y175367D02*
D03*
D41*
X319988Y-5185D02*
D03*
X318680Y-20128D02*
D03*
D42*
X-256272Y188197D02*
D03*
X-247668Y200485D02*
D03*
D43*
X-304125Y91652D02*
D03*
X-300243Y106141D02*
D03*
D44*
X-303935Y-96170D02*
D03*
X-307817Y-81681D02*
D03*
X302634Y99527D02*
D03*
X306516Y85039D02*
D03*
D45*
X-262348Y-179981D02*
D03*
X-270952Y-167693D02*
D03*
D46*
X-98546Y-302386D02*
D03*
X-112642Y-297256D02*
D03*
D47*
X-17971Y-359839D02*
D03*
X12029D02*
D03*
D48*
X6662Y-318280D02*
D03*
X-8338D02*
D03*
X78683Y-365482D02*
D03*
X63683D02*
D03*
D49*
X186944Y-258523D02*
D03*
X174656Y-267127D02*
D03*
D50*
X257164Y-179199D02*
D03*
X247522Y-190689D02*
D03*
D51*
X187947Y257085D02*
D03*
X199438Y247443D02*
D03*
D52*
X121844Y295126D02*
D03*
X135438Y288786D02*
D03*
D53*
X274296Y232516D02*
D03*
X291504Y207942D02*
D03*
D54*
X-273412Y224673D02*
D03*
X-292696Y201692D02*
D03*
D55*
X-323429Y157280D02*
D03*
X-317089Y170874D02*
D03*
D56*
X320558Y159436D02*
D03*
X313058Y172426D02*
D03*
D57*
X-288958Y-200212D02*
D03*
X-274389Y-221019D02*
D03*
X-218363Y-284601D02*
D03*
X-196366Y-297301D02*
D03*
X378245Y156707D02*
D03*
X386932Y132839D02*
D03*
X395619Y108971D02*
D03*
X407794Y6228D02*
D03*
X376919Y-168871D02*
D03*
X381330Y-143856D02*
D03*
X385741Y-118842D02*
D03*
X390151Y-93828D02*
D03*
X394562Y-68814D02*
D03*
X398973Y-43800D02*
D03*
X403383Y-18786D02*
D03*
X-370173Y181711D02*
D03*
X-378860Y157843D02*
D03*
X-402367Y84847D02*
D03*
X335049Y-143057D02*
D03*
X339460Y-118043D02*
D03*
X350491Y-51570D02*
D03*
X351821Y-26205D02*
D03*
X299347Y-195135D02*
D03*
X285144Y-216192D02*
D03*
D58*
X-259820Y-241825D02*
D03*
D59*
X-174369Y-310001D02*
D03*
D60*
X218100Y-218100D02*
D03*
X-218100D02*
D03*
X218100Y218100D02*
D03*
X-218100D02*
D03*
D61*
X369557Y180575D02*
D03*
D62*
X412205Y31242D02*
D03*
X343870Y-93029D02*
D03*
D63*
X101600Y-340350D02*
D03*
X-101600D02*
D03*
D64*
X-387547Y133975D02*
D03*
D65*
X-408081Y60098D02*
D03*
D66*
X353150Y-840D02*
D03*
D67*
X270940Y-237250D02*
D03*
D68*
X153143Y-274508D02*
D03*
X-178941Y-265292D02*
D03*
X-156056Y-259721D02*
D03*
X-241075Y250711D02*
D03*
X-387468Y20306D02*
D03*
X97833Y-365119D02*
D03*
X-242070Y-203120D02*
D03*
X-153200Y-276379D02*
D03*
X-98551Y-256734D02*
D03*
X-145380Y-312562D02*
D03*
X-418693Y44006D02*
D03*
X44765Y-193899D02*
D03*
X-115001Y-193898D02*
D03*
X244519Y253207D02*
D03*
X333288Y127937D02*
D03*
X307577Y16119D02*
D03*
X295778Y-96104D02*
D03*
X316395Y-37779D02*
D03*
X312157Y-60677D02*
D03*
X273436Y-164297D02*
D03*
X-77173Y-309524D02*
D03*
X112527Y-293144D02*
D03*
X-383744Y-53951D02*
D03*
X-370672Y-77542D02*
D03*
X38539Y-384348D02*
D03*
X-38118Y-232368D02*
D03*
X84222Y-201781D02*
D03*
X-12466Y-199407D02*
D03*
X109447Y-186456D02*
D03*
X-69156Y-188340D02*
D03*
X31670Y-184947D02*
D03*
X-182553Y-224641D02*
D03*
X-184236Y-241130D02*
D03*
X-200947Y-244843D02*
D03*
X-52175Y-387487D02*
D03*
M02*
