G04 Layer_Color=32768*
%FSLAX44Y44*%
%MOMM*%
G71*
G01*
G75*
%ADD76C,0.1000*%
D76*
X314602Y-12243D02*
X324066Y-13071D01*
X318920Y-17389D02*
X319748Y-7925D01*
X323767Y-25091D02*
X325859Y-1182D01*
X312809Y-24132D02*
X314901Y-223D01*
X325859Y-1182D01*
X312809Y-24132D02*
X323767Y-25091D01*
X-255861Y197065D02*
X-248079Y191616D01*
X-254694Y190450D02*
X-249246Y198232D01*
X-263358Y187666D02*
X-249592Y207325D01*
X-254348Y181357D02*
X-240582Y201016D01*
X-263358Y187666D02*
X-254348Y181357D01*
X-249592Y207325D02*
X-240582Y201016D01*
X-306772Y100126D02*
X-297596Y97668D01*
X-303413Y94309D02*
X-300955Y103485D01*
X-310602Y88729D02*
X-304391Y111912D01*
X-299977Y85882D02*
X-293766Y109065D01*
X-310602Y88729D02*
X-299977Y85882D01*
X-304391Y111912D02*
X-293766Y109065D01*
X-310464Y-90154D02*
X-301288Y-87696D01*
X-307105Y-84337D02*
X-304647Y-93513D01*
X-314294Y-78757D02*
X-308083Y-101940D01*
X-303669Y-75910D02*
X-297458Y-99093D01*
X-308083Y-101940D02*
X-297458Y-99093D01*
X-314294Y-78757D02*
X-303669Y-75910D01*
X-270541Y-176562D02*
X-262759Y-171112D01*
X-269374Y-169946D02*
X-263925Y-177728D01*
X-278038Y-167162D02*
X-264272Y-186821D01*
X-269028Y-160853D02*
X-255262Y-180512D01*
X-264272Y-186821D02*
X-255262Y-180512D01*
X-278038Y-167162D02*
X-269028Y-160853D01*
X-107219Y-304284D02*
X-103969Y-295357D01*
X-110057Y-298196D02*
X-101131Y-301446D01*
X-118751Y-300885D02*
X-96199Y-309093D01*
X-114989Y-290548D02*
X-92437Y-298757D01*
X-96199Y-309093D02*
X-92437Y-298757D01*
X-118751Y-300885D02*
X-114989Y-290548D01*
X-838Y-323030D02*
Y-313530D01*
X-5588Y-318280D02*
X3912D01*
X-12838Y-323780D02*
X11162D01*
X-12838Y-312780D02*
X11162D01*
Y-323780D02*
Y-312780D01*
X-12838Y-323780D02*
Y-312780D01*
X178076Y-258934D02*
X183524Y-266716D01*
X176909Y-265549D02*
X184691Y-260100D01*
X174125Y-274213D02*
X193785Y-260447D01*
X167815Y-265203D02*
X187475Y-251437D01*
X193785Y-260447D01*
X167815Y-265203D02*
X174125Y-274213D01*
X248704Y-181891D02*
X255982Y-187997D01*
X249290Y-188583D02*
X255396Y-181305D01*
X248843Y-197672D02*
X264270Y-179287D01*
X240416Y-190601D02*
X255843Y-172216D01*
X264270Y-179287D01*
X240416Y-190601D02*
X248843Y-197672D01*
X299987Y91054D02*
X309163Y93512D01*
X303346Y96871D02*
X305804Y87695D01*
X306782Y105298D02*
X312993Y82115D01*
X296157Y102451D02*
X302368Y79268D01*
X296157Y102451D02*
X306782Y105298D01*
X302368Y79268D02*
X312993Y82115D01*
X190639Y248625D02*
X196746Y255903D01*
X190054Y255317D02*
X197331Y249211D01*
X188036Y264191D02*
X206421Y248764D01*
X180965Y255764D02*
X199350Y240337D01*
X180965Y255764D02*
X188036Y264191D01*
X199350Y240337D02*
X206421Y248764D01*
X126634Y287651D02*
X130648Y296261D01*
X124336Y293963D02*
X132946Y289949D01*
X120090Y302012D02*
X141841Y291869D01*
X115441Y292043D02*
X137192Y281900D01*
X115441Y292043D02*
X120090Y302012D01*
X137192Y281900D02*
X141841Y291869D01*
X71183Y-370232D02*
Y-360732D01*
X66433Y-365482D02*
X75933D01*
X59183Y-370982D02*
X83183D01*
X59183Y-359982D02*
X83183D01*
Y-370982D02*
Y-359982D01*
X59183Y-370982D02*
Y-359982D01*
X-324564Y166084D02*
X-315954Y162069D01*
X-322267Y159772D02*
X-318252Y168382D01*
X-330315Y155526D02*
X-320172Y177277D01*
X-320346Y150877D02*
X-310203Y172628D01*
X-330315Y155526D02*
X-320346Y150877D01*
X-320172Y177277D02*
X-310203Y172628D01*
X312694Y163556D02*
X320922Y168306D01*
X314433Y170045D02*
X319183Y161817D01*
X306045Y173573D02*
X318045Y152789D01*
X315571Y179073D02*
X327571Y158289D01*
X318045Y152789D02*
X327571Y158289D01*
X306045Y173573D02*
X315571Y179073D01*
M02*
