G04 Layer_Physical_Order=2*
G04 Layer_Color=16711680*
%FSLAX44Y44*%
%MOMM*%
G71*
G01*
G75*
%ADD10C,0.2540*%
%ADD11C,0.5000*%
%ADD57C,1.5000*%
%ADD58P,2.1213X4X170.0*%
%ADD59P,2.1213X4X195.0*%
%ADD60C,3.5000*%
%ADD61P,2.1213X4X335.0*%
%ADD62P,2.1213X4X305.0*%
%ADD63C,3.0000*%
%ADD64P,2.1213X4X115.0*%
%ADD65P,2.1213X4X122.0*%
%ADD66P,2.1213X4X312.0*%
%ADD67P,2.1213X4X101.0*%
%ADD68C,1.2700*%
%ADD69R,1.9000X1.6000*%
%ADD70R,1.0000X2.5000*%
G04:AMPARAMS|DCode=71|XSize=3.5mm|YSize=2.2mm|CornerRadius=0mm|HoleSize=0mm|Usage=FLASHONLY|Rotation=200.000|XOffset=0mm|YOffset=0mm|HoleType=Round|Shape=Rectangle|*
%AMROTATEDRECTD71*
4,1,4,1.2682,1.6322,2.0207,-0.4351,-1.2682,-1.6322,-2.0207,0.4351,1.2682,1.6322,0.0*
%
%ADD71ROTATEDRECTD71*%

G04:AMPARAMS|DCode=72|XSize=0.6mm|YSize=2.2mm|CornerRadius=0mm|HoleSize=0mm|Usage=FLASHONLY|Rotation=200.000|XOffset=0mm|YOffset=0mm|HoleType=Round|Shape=Rectangle|*
%AMROTATEDRECTD72*
4,1,4,-0.0943,1.1363,0.6581,-0.9311,0.0943,-1.1363,-0.6581,0.9311,-0.0943,1.1363,0.0*
%
%ADD72ROTATEDRECTD72*%

%ADD73R,2.2860X0.7620*%
%ADD74C,0.0000*%
D10*
X134277Y-349065D02*
G03*
X322803Y-188876I-134279J349063D01*
G01*
X-98514Y-397989D02*
G03*
X110519Y-394823I98514J397989D01*
G01*
X378962Y-198153D02*
G03*
X416371Y-97531I-378964J198151D01*
G01*
X1727Y-287996D02*
G03*
X122501Y-260648I-1734J288011D01*
G01*
X9777Y-275827D02*
G03*
X243694Y-129574I-9777J275827D01*
G01*
X9597Y-274832D02*
G03*
X9737Y-274828I-9597J274832D01*
G01*
X0Y-282000D02*
G03*
X244219Y-141000I0J282000D01*
G01*
X299350Y-195139D02*
X323266Y-171222D01*
X388098Y-92496D02*
X389790Y-94189D01*
X413103D01*
X322803Y-188876D02*
X369684D01*
X322803Y-188876D02*
X322803Y-188876D01*
X134277Y-349065D02*
X134277Y-349065D01*
X110521Y-372822D02*
X134277Y-349065D01*
X110521Y-394823D02*
Y-372822D01*
X369684Y-188876D02*
X378923Y-198114D01*
X-120045Y-374406D02*
X-96164Y-398288D01*
X-120045Y-374406D02*
Y-361908D01*
X-145380Y-336572D02*
X-120045Y-361908D01*
X-145380Y-336572D02*
Y-312562D01*
X413103Y-94189D02*
X416371Y-97457D01*
X389790Y-94189D02*
X390151Y-93828D01*
X340923Y-143057D02*
X389790Y-94189D01*
X122145Y-261004D02*
X151570Y-290429D01*
X374567Y-171222D02*
X376919Y-168871D01*
X323266Y-171222D02*
X374567D01*
X382433Y-118842D02*
X385741D01*
X355556Y-145719D02*
X382433Y-118842D01*
X319098Y-166142D02*
X345625D01*
X293955Y-141000D02*
X319098Y-166142D01*
X243694Y-130982D02*
X299306D01*
X318556Y-150232D01*
X343831Y-157444D02*
X355556Y-145719D01*
X343831Y-157444D02*
X344092Y-157705D01*
X326029D02*
X344092D01*
X367911Y-143856D02*
X381330D01*
X345625Y-166142D02*
X367911Y-143856D01*
X316655Y-148331D02*
X326029Y-157705D01*
X11621Y-205995D02*
X14579Y-203037D01*
X9737Y-274832D02*
X9737Y-274828D01*
X11621Y-205995D01*
X84222Y-201781D02*
X89020Y-206579D01*
Y-225850D02*
Y-206579D01*
X-52930Y-236517D02*
X-1491Y-287956D01*
X95D01*
X-38118Y-243882D02*
Y-232368D01*
X-52930Y-236517D02*
Y-183589D01*
X-9751D01*
X-12161Y-183673D02*
X18411D01*
X63640Y-208132D02*
Y-200850D01*
Y-208132D02*
X64491Y-207281D01*
X63640Y-244818D02*
Y-208132D01*
X23505Y-244818D02*
X63640D01*
X23505D02*
Y-191150D01*
X21511Y-189155D02*
X23505Y-191150D01*
X21511Y-189155D02*
Y-186772D01*
X18411Y-183673D02*
X21511Y-186772D01*
X-38118Y-243882D02*
X0Y-282000D01*
X244219Y-141000D02*
X293955D01*
X151570Y-290429D02*
X198482D01*
X272715Y-216196D01*
X285147D01*
D11*
X-167761Y186507D02*
G03*
X-150533Y-199731I166984J-186055D01*
G01*
X125891Y-226576D02*
G03*
X128734Y-225021I-122900J227983D01*
G01*
X125743Y-226427D02*
G03*
X257822Y-24676I-125743J226427D01*
G01*
X-147000Y-254611D02*
G03*
X-51052Y-289533I147000J254611D01*
G01*
X-310072Y65908D02*
G03*
X-265248Y-173587I310072J-65908D01*
G01*
X-329196Y-23020D02*
G03*
X-266976Y-193969I329196J23020D01*
G01*
X-199171Y167125D02*
G03*
X-160072Y-204883I199171J-167125D01*
G01*
X117854Y-241808D02*
G03*
X250610Y-97754I-117854J241808D01*
G01*
X-143189Y-269299D02*
G03*
X-94584Y-289963I143189J269299D01*
G01*
X-241905Y141004D02*
G03*
X-231656Y-157280I241903J-141006D01*
G01*
X325553Y17062D02*
G03*
X256891Y200705I-325553J-17062D01*
G01*
X-40588Y-330338D02*
X-38100Y-327850D01*
X-419397Y-25505D02*
X-407890D01*
X-427122Y-17780D02*
X-419397Y-25505D01*
X-427122Y-17780D02*
Y29056D01*
X-418693Y37485D01*
Y44006D01*
X-115001Y-205648D02*
Y-193898D01*
X-125731Y-216377D02*
X-115001Y-205648D01*
X-148577Y-216377D02*
X-125731D01*
X-156056Y-259721D02*
X-152110D01*
X-243255Y142354D02*
Y245151D01*
X-241075Y247331D01*
Y250711D01*
X-265317Y249932D02*
X-246165Y269083D01*
X-272857Y253055D02*
X-248934Y276978D01*
X-265317Y224077D02*
Y249932D01*
X-246165Y269083D02*
X-223374D01*
X-272857Y238975D02*
Y253055D01*
X-248934Y276978D02*
X-217690D01*
X-387468Y20306D02*
X-371891D01*
X-366597Y25601D01*
X-333935Y177897D02*
X-272857Y238975D01*
X-366358Y177897D02*
X-333935D01*
X-370173Y181711D02*
X-366358Y177897D01*
X-387547Y133975D02*
X-355419D01*
X-265317Y224077D01*
X-223374Y269083D02*
X-178309Y224018D01*
Y187987D02*
Y224018D01*
X323591Y-76309D02*
X330394Y-69506D01*
X249595Y-76309D02*
X323591D01*
X315745Y-97031D02*
X336757Y-118043D01*
X132434Y-313720D02*
X143810Y-302344D01*
X132171Y-313457D02*
X132434Y-313720D01*
X100152Y-313457D02*
X132171D01*
X81220Y-332389D02*
X100152Y-313457D01*
X270943Y-239126D02*
Y-237254D01*
X261148Y-248921D02*
X270943Y-239126D01*
X-204088Y-309841D02*
X-174529D01*
X-211889Y-302040D02*
X-204088Y-309841D01*
X-218658Y-302040D02*
X-211889D01*
X-236181Y-284517D02*
X-218658Y-302040D01*
X-33865Y-289533D02*
X-12700Y-310698D01*
X336757Y-118043D02*
X339460D01*
X333288Y-20887D02*
Y127937D01*
X316395Y-37779D02*
X333288Y-20887D01*
X374087Y20097D02*
X401059D01*
X353150Y-840D02*
X374087Y20097D01*
X330394Y-69506D02*
Y-47632D01*
X351821Y-26205D01*
X80532Y-347818D02*
X97833Y-365119D01*
X80532Y-347818D02*
Y-346248D01*
X109802Y-293144D02*
X112527D01*
X-251105Y-194085D02*
X-242070Y-203120D01*
X-266860Y-194085D02*
X-251105D01*
X-153200Y-276379D02*
X-150269D01*
X-159713D02*
X-153200D01*
X-178050Y-294716D02*
X-159713Y-276379D01*
X-179202Y-294716D02*
X-178050D01*
X-181787Y-297301D02*
X-179202Y-294716D01*
X-196366Y-297301D02*
X-181787D01*
X-366597Y-26150D02*
X-329196D01*
X-92587Y-261165D02*
X-37206D01*
X-3981Y-294390D01*
X5043D01*
X-152605Y-212349D02*
X-148577Y-216377D01*
X5043Y-294390D02*
X12700Y-302047D01*
X-402367Y84847D02*
X-329011D01*
X-366597Y25601D02*
Y49077D01*
Y4850D02*
Y25601D01*
X-168691Y186507D02*
Y227979D01*
X-217690Y276978D02*
X-168691Y227979D01*
X-142292Y-207972D02*
X-132847D01*
X-126391Y-201516D01*
Y-189180D01*
X409464Y31242D02*
X412205D01*
X349744Y-93029D02*
X398973Y-43800D01*
X343870Y-93029D02*
X349744D01*
X335049Y-143057D02*
X340923D01*
X-402367Y84847D02*
X-366597Y49077D01*
X-407890Y5495D02*
X-367242D01*
X-366597Y4850D01*
X401059Y20097D02*
X412205Y31242D01*
X-174529Y-309841D02*
X-174369Y-310001D01*
X-288958Y-200212D02*
X-285757Y-197011D01*
X-383797Y-116394D02*
X-383484Y-116081D01*
X242417Y251105D02*
X244519Y253207D01*
X242417Y215179D02*
Y251105D01*
X307577Y16119D02*
X324611D01*
X299854Y-48374D02*
X312157Y-60677D01*
X299854Y16119D02*
X307577D01*
X273436Y-164297D02*
X273582Y-164443D01*
X-347995Y-103363D02*
X-345750Y-101118D01*
Y-62965D01*
X-391557Y-61764D02*
X-383744Y-53951D01*
X-372176Y-111737D02*
X-371863Y-112050D01*
X-391557Y-88209D02*
Y-61764D01*
Y-88209D02*
X-372176Y-107590D01*
Y-111737D02*
Y-107590D01*
X-359929Y-107706D02*
Y-106437D01*
X-362333Y-104033D02*
X-359929Y-106437D01*
X-362333Y-104033D02*
Y-85881D01*
X-370672Y-77542D02*
X-362333Y-85881D01*
X-387488Y-34822D02*
X-375269D01*
X-366597Y-26150D01*
X-406022Y-53356D02*
X-387488Y-34822D01*
X-383744Y-53951D02*
X-379078Y-49285D01*
X-345750D01*
X-395731Y-120737D02*
X-391388Y-116394D01*
X-383797D01*
X-406022Y-105327D02*
Y-53356D01*
Y-105327D02*
X-395731Y-115618D01*
Y-120737D02*
Y-115618D01*
X-126391Y-189180D02*
X-116742Y-179531D01*
X-115001Y-193898D02*
X-107869Y-201031D01*
Y-217530D02*
Y-201031D01*
Y-217530D02*
X-99549Y-225850D01*
X-63500D01*
X38240Y-381835D02*
Y-352850D01*
X35727Y-384348D02*
X38539D01*
X-94584Y-308567D02*
X-74714Y-328437D01*
Y-366424D02*
Y-328437D01*
X-77173Y-309524D02*
X-67585D01*
X-49865Y-327244D01*
X34349Y-327850D02*
X63640D01*
X-12700Y-352850D02*
Y-310698D01*
X12700Y-327850D02*
Y-302047D01*
X-12700Y-196307D02*
X-12466Y-196541D01*
Y-199407D02*
Y-196541D01*
X111630Y-212315D02*
Y-187516D01*
X100865Y-224819D02*
Y-200609D01*
X79971Y-179715D02*
X100865Y-200609D01*
X58949Y-179715D02*
X79971D01*
X44765Y-193899D02*
X58949Y-179715D01*
X-77962Y-179531D02*
X-69156Y-188337D01*
Y-188340D02*
Y-188337D01*
X-88890Y-179778D02*
X-88643Y-179531D01*
X-88890Y-200850D02*
Y-179778D01*
X-116742Y-179531D02*
X-88643D01*
X-77962D01*
X31525Y-219135D02*
X38240Y-225850D01*
X31670Y-218990D02*
Y-184947D01*
X-150533Y-199731D02*
X-142292Y-207972D01*
X-150533Y-199731D02*
X-150533Y-199731D01*
X-168691Y186507D02*
X-167761D01*
X-167761D01*
X31525Y-219135D02*
X31670Y-218990D01*
X111630Y-212315D02*
X125891Y-226576D01*
X143810Y-302344D02*
X205547D01*
X258970Y-248921D01*
X261148D01*
X192373Y-280018D02*
X273582Y-198809D01*
Y-164443D01*
X153143Y-274508D02*
X158653Y-280018D01*
X192373D01*
X-164099Y-222898D02*
Y-214876D01*
X-220910Y-158065D02*
X-164099Y-214876D01*
X-231206Y-158065D02*
X-220910D01*
X-258114Y-166453D02*
X-223185D01*
X-207392Y-182246D01*
Y-183543D02*
Y-182246D01*
Y-183543D02*
X-206744Y-182894D01*
X-177344Y-212294D01*
X-242070Y-203120D02*
X-239177D01*
X-230986Y-194930D01*
X-207365D01*
X-182553Y-224641D02*
X-177344Y-219433D01*
Y-212294D01*
X-274290Y-208479D02*
X-269195D01*
X-261849Y-215824D01*
Y-220919D02*
Y-215824D01*
Y-220919D02*
X-256429Y-226340D01*
X-255891D01*
X-244335Y-237896D01*
Y-238434D02*
Y-237896D01*
X-178941Y-265292D02*
Y-263916D01*
X-157603Y-242578D01*
X-111174D01*
X-244335Y-238434D02*
X-221937Y-260831D01*
X-259820Y-241825D02*
X-236181Y-265464D01*
Y-284517D02*
Y-265464D01*
X-207365Y-194930D02*
X-194783Y-207512D01*
X-221937Y-260831D02*
X-191369D01*
X-184236Y-243035D02*
Y-241130D01*
X-191369Y-260831D02*
X-183058Y-252520D01*
X-179518D01*
X-152605Y-225607D01*
Y-212349D01*
X-205389Y-244843D02*
X-200947D01*
Y-241336D01*
X-194783Y-235172D01*
Y-207512D01*
X-51052Y-289533D02*
X-33865D01*
X-152110Y-259721D02*
X-147000Y-254611D01*
X-265248Y-173587D02*
X-258114Y-166453D01*
X-329011Y84847D02*
X-310072Y65908D01*
X-266976Y-193969D02*
X-266860Y-194085D01*
X-266976Y-193969D02*
X-266976Y-193969D01*
X-111174Y-242578D02*
X-92587Y-261165D01*
X-160072Y-204883D02*
X-152605Y-212349D01*
X-13951Y-224599D02*
X-13863Y-224510D01*
X-13951Y-224599D02*
X-13425Y-224345D01*
X-12615Y-223955D01*
X-12691Y-199408D02*
X-12615Y-223955D01*
X-12700Y-196307D02*
X-12691Y-199408D01*
X-285757Y-197011D02*
X-274290Y-208479D01*
X-160072Y-204883D02*
X-160072Y-204883D01*
X-199171Y167125D02*
X-199171Y167125D01*
X-178309Y187987D01*
X100865Y-224819D02*
X117854Y-241808D01*
X267542Y-237254D02*
X270943D01*
X251124Y-97031D02*
X315745D01*
X-49865Y-358597D02*
Y-327244D01*
X-52388Y-388750D02*
X-52175Y-387487D01*
X35727Y-384348D02*
X38240Y-381835D01*
X-49865Y-358597D02*
X-24353Y-384109D01*
X-52175Y-387487D02*
X-41117Y-397341D01*
X47983D01*
X-24353Y-384109D02*
X23558D01*
Y-338641D01*
X34349Y-327850D01*
X73680Y-329266D02*
X109802Y-293144D01*
X47983Y-397341D02*
X47994Y-397352D01*
X73680Y-371667D01*
X80532Y-346248D02*
X81220Y-345561D01*
Y-332389D01*
X73680Y-342438D02*
Y-329266D01*
Y-371667D02*
Y-351629D01*
X72992Y-350941D02*
X73680Y-351629D01*
X72992Y-350941D02*
Y-343125D01*
X73680Y-342438D01*
X-94584Y-308567D02*
Y-289963D01*
X-150269Y-276379D02*
X-143189Y-269299D01*
X-74714Y-366424D02*
X-52388Y-388750D01*
X-243255Y142354D02*
X-241905Y141004D01*
X-184236Y-243035D02*
X-164099Y-222898D01*
X242417Y215179D02*
X256891Y200705D01*
X299854Y-48374D02*
Y16119D01*
X324611D02*
X325553Y17062D01*
D57*
X-288958Y-200212D02*
D03*
X-274389Y-221019D02*
D03*
X-218363Y-284601D02*
D03*
X-196366Y-297301D02*
D03*
X378245Y156707D02*
D03*
X386932Y132839D02*
D03*
X395619Y108971D02*
D03*
X407794Y6228D02*
D03*
X376919Y-168871D02*
D03*
X381330Y-143856D02*
D03*
X385741Y-118842D02*
D03*
X390151Y-93828D02*
D03*
X394562Y-68814D02*
D03*
X398973Y-43800D02*
D03*
X403383Y-18786D02*
D03*
X-370173Y181711D02*
D03*
X-378860Y157843D02*
D03*
X-402367Y84847D02*
D03*
X335049Y-143057D02*
D03*
X339460Y-118043D02*
D03*
X350491Y-51570D02*
D03*
X351821Y-26205D02*
D03*
X299347Y-195135D02*
D03*
X285144Y-216192D02*
D03*
D58*
X-259820Y-241825D02*
D03*
D59*
X-174369Y-310001D02*
D03*
D60*
X218100Y-218100D02*
D03*
X-218100D02*
D03*
X218100Y218100D02*
D03*
X-218100D02*
D03*
D61*
X369557Y180575D02*
D03*
D62*
X412205Y31242D02*
D03*
X343870Y-93029D02*
D03*
D63*
X101600Y-340350D02*
D03*
X-101600D02*
D03*
D64*
X-387547Y133975D02*
D03*
D65*
X-408081Y60098D02*
D03*
D66*
X353150Y-840D02*
D03*
D67*
X270940Y-237250D02*
D03*
D68*
X153143Y-274508D02*
D03*
X-178941Y-265292D02*
D03*
X-156056Y-259721D02*
D03*
X-241075Y250711D02*
D03*
X-387468Y20306D02*
D03*
X97833Y-365119D02*
D03*
X-242070Y-203120D02*
D03*
X-153200Y-276379D02*
D03*
X-98551Y-256734D02*
D03*
X-145380Y-312562D02*
D03*
X-418693Y44006D02*
D03*
X44765Y-193899D02*
D03*
X-115001Y-193898D02*
D03*
X244519Y253207D02*
D03*
X333288Y127937D02*
D03*
X307577Y16119D02*
D03*
X295778Y-96104D02*
D03*
X316395Y-37779D02*
D03*
X312157Y-60677D02*
D03*
X273436Y-164297D02*
D03*
X-77173Y-309524D02*
D03*
X112527Y-293144D02*
D03*
X-383744Y-53951D02*
D03*
X-370672Y-77542D02*
D03*
X38539Y-384348D02*
D03*
X-38118Y-232368D02*
D03*
X84222Y-201781D02*
D03*
X-12466Y-199407D02*
D03*
X109447Y-186456D02*
D03*
X-69156Y-188340D02*
D03*
X31670Y-184947D02*
D03*
X-182553Y-224641D02*
D03*
X-184236Y-241130D02*
D03*
X-200947Y-244843D02*
D03*
X-52175Y-387487D02*
D03*
D69*
X-366597Y4850D02*
D03*
Y-26150D02*
D03*
X-407890Y5495D02*
D03*
Y-25505D02*
D03*
D70*
X63640Y-200850D02*
D03*
X38240Y-352850D02*
D03*
X-38100Y-200850D02*
D03*
X-63500Y-352850D02*
D03*
X63640Y-327850D02*
D03*
X38240Y-225850D02*
D03*
X-63500D02*
D03*
X-38100Y-327850D02*
D03*
X12700Y-200850D02*
D03*
X-12700Y-352850D02*
D03*
X-88890Y-200850D02*
D03*
X89020Y-225850D02*
D03*
X12700Y-327850D02*
D03*
X-12700Y-225850D02*
D03*
D71*
X-350658Y-170311D02*
D03*
D72*
X-359929Y-107706D02*
D03*
X-383797Y-116394D02*
D03*
X-347995Y-103363D02*
D03*
X-371863Y-112050D02*
D03*
X-395731Y-120737D02*
D03*
D73*
X-345750Y-62965D02*
D03*
Y-49285D02*
D03*
D74*
X-174369Y-310001D02*
X-164929D01*
M02*
