G04 Layer_Color=65535*
%FSLAX44Y44*%
%MOMM*%
G71*
G01*
G75*
%ADD10C,0.2540*%
%ADD75C,0.2000*%
%ADD76C,0.1000*%
D10*
X-154325Y337148D02*
Y326991D01*
X-149247Y321913D01*
X-144168Y326991D01*
Y337148D01*
X-139090Y321913D02*
X-134012D01*
X-136551D01*
Y337148D01*
X-139090Y334609D01*
X-274888Y141040D02*
X-266411Y135743D01*
X-263762Y139982D01*
X-264292Y142278D01*
X-265705Y143161D01*
X-268001Y142631D01*
X-270649Y138392D01*
X-268001Y142631D01*
X-268531Y144926D01*
X-269944Y145809D01*
X-272239Y145279D01*
X-274888Y141040D01*
X-261113Y144221D02*
X-259347Y147047D01*
X-260230Y145634D01*
X-268708Y150931D01*
X-268178Y148635D01*
X-272397Y-141126D02*
X-264629Y-134835D01*
X-267774Y-130950D01*
X-270117Y-130704D01*
X-271412Y-131753D01*
X-271659Y-134096D01*
X-268513Y-137980D01*
X-271659Y-134096D01*
X-274002Y-133850D01*
X-275297Y-134898D01*
X-275543Y-137242D01*
X-272397Y-141126D01*
X-275114Y-121887D02*
X-270920Y-127066D01*
X-280293Y-126081D01*
X-281588Y-127129D01*
X-281834Y-129473D01*
X-279737Y-132062D01*
X-277394Y-132309D01*
X-49048Y-302999D02*
X-46461Y-293343D01*
X-51289Y-292049D01*
X-53330Y-293227D01*
X-53761Y-294837D01*
X-52583Y-296877D01*
X-47755Y-298171D01*
X-52583Y-296877D01*
X-54623Y-298055D01*
X-55054Y-299665D01*
X-53876Y-301705D01*
X-49048Y-302999D01*
X-58273Y-298802D02*
X-60314Y-299981D01*
X-63533Y-299118D01*
X-64711Y-297078D01*
X-64279Y-295468D01*
X-62239Y-294290D01*
X-60630Y-294721D01*
X-62239Y-294290D01*
X-63417Y-292249D01*
X-62986Y-290640D01*
X-60945Y-289462D01*
X-57726Y-290324D01*
X-56548Y-292365D01*
X170179Y-216787D02*
X164445Y-208599D01*
X160350Y-211465D01*
X159941Y-213786D01*
X160897Y-215151D01*
X163217Y-215560D01*
X167312Y-212693D01*
X163217Y-215560D01*
X162808Y-217880D01*
X163764Y-219245D01*
X166084Y-219654D01*
X170179Y-216787D01*
X152161Y-217199D02*
X157895Y-225388D01*
X159123Y-218427D01*
X153664Y-222250D01*
X304327Y46617D02*
X294331D01*
Y41619D01*
X295997Y39953D01*
X297663D01*
X299329Y41619D01*
Y46617D01*
Y41619D01*
X300995Y39953D01*
X302661D01*
X304327Y41619D01*
Y46617D01*
Y29956D02*
Y36621D01*
X299329D01*
X300995Y33288D01*
Y31622D01*
X299329Y29956D01*
X295997D01*
X294331Y31622D01*
Y34955D01*
X295997Y36621D01*
X162022Y228283D02*
X155596Y220625D01*
X159425Y217412D01*
X161772Y217617D01*
X162843Y218894D01*
X162638Y221241D01*
X158809Y224454D01*
X162638Y221241D01*
X164985Y221446D01*
X166056Y222723D01*
X165851Y225070D01*
X162022Y228283D01*
X174785Y217573D02*
X171161Y218439D01*
X166467Y218028D01*
X164325Y215476D01*
X164530Y213128D01*
X167083Y210986D01*
X169430Y211192D01*
X170501Y212468D01*
X170296Y214815D01*
X166467Y218028D01*
X-295934Y121123D02*
X-286278Y118536D01*
X-284984Y123364D01*
X-286162Y125405D01*
X-287772Y125836D01*
X-289812Y124658D01*
X-291106Y119830D01*
X-289812Y124658D01*
X-290991Y126698D01*
X-292600Y127130D01*
X-294641Y125951D01*
X-295934Y121123D01*
X-283691Y128192D02*
X-293347Y130779D01*
X-292053Y135608D01*
X-290012Y136786D01*
X-286794Y135923D01*
X-285616Y133883D01*
X-286909Y129055D01*
X-286047Y132273D02*
X-281966Y134630D01*
X-281103Y137848D02*
X-280241Y141067D01*
X-280672Y139458D01*
X-290328Y142045D01*
X-289150Y140004D01*
X-280331Y-157552D02*
X-272142Y-151818D01*
X-275009Y-147724D01*
X-277329Y-147314D01*
X-278694Y-148270D01*
X-279103Y-150590D01*
X-276236Y-154685D01*
X-279103Y-150590D01*
X-281424Y-150181D01*
X-282789Y-151137D01*
X-283198Y-153457D01*
X-280331Y-157552D01*
X-277876Y-143629D02*
X-286065Y-149363D01*
X-288932Y-145269D01*
X-288523Y-142948D01*
X-285793Y-141037D01*
X-283472Y-141446D01*
X-280606Y-145540D01*
X-282517Y-142811D02*
X-281698Y-138170D01*
X-287432Y-129981D02*
X-283610Y-135440D01*
X-292892Y-133804D01*
X-294256Y-134759D01*
X-294666Y-137080D01*
X-292754Y-139809D01*
X-290434Y-140218D01*
X22630Y-303840D02*
Y-293843D01*
X17632D01*
X15965Y-295509D01*
Y-297175D01*
X17632Y-298841D01*
X22630D01*
X17632D01*
X15965Y-300508D01*
Y-302174D01*
X17632Y-303840D01*
X22630D01*
X12633Y-293843D02*
Y-303840D01*
X7635D01*
X5969Y-302174D01*
Y-298841D01*
X7635Y-297175D01*
X12633D01*
X9301D02*
X5969Y-293843D01*
X2636Y-302174D02*
X970Y-303840D01*
X-2362D01*
X-4028Y-302174D01*
Y-300508D01*
X-2362Y-298841D01*
X-696D01*
X-2362D01*
X-4028Y-297175D01*
Y-295509D01*
X-2362Y-293843D01*
X970D01*
X2636Y-295509D01*
X247291Y-174449D02*
X239633Y-168023D01*
X236420Y-171852D01*
X236625Y-174199D01*
X237902Y-175270D01*
X240249Y-175065D01*
X243462Y-171236D01*
X240249Y-175065D01*
X240454Y-177412D01*
X241731Y-178483D01*
X244078Y-178278D01*
X247291Y-174449D01*
X233207Y-175681D02*
X240865Y-182107D01*
X237652Y-185936D01*
X235305Y-186141D01*
X232752Y-183999D01*
X232547Y-181652D01*
X235760Y-177823D01*
X233618Y-180376D02*
X228923Y-180786D01*
X223568Y-187168D02*
X231227Y-193594D01*
X230610Y-186552D01*
X226327Y-191657D01*
X289275Y105461D02*
X279619Y102874D01*
X280913Y98046D01*
X282953Y96868D01*
X284563Y97299D01*
X285741Y99340D01*
X284447Y104168D01*
X285741Y99340D01*
X287781Y98161D01*
X289391Y98593D01*
X290569Y100633D01*
X289275Y105461D01*
X282206Y93218D02*
X291863Y95805D01*
X293156Y90977D01*
X291978Y88937D01*
X288759Y88074D01*
X286719Y89252D01*
X285425Y94080D01*
X286287Y90862D02*
X283931Y86780D01*
X296175Y79712D02*
X294450Y86149D01*
X289622Y84855D01*
X292094Y82068D01*
X292525Y80458D01*
X291347Y78418D01*
X288128Y77555D01*
X286087Y78734D01*
X285225Y81952D01*
X286403Y83993D01*
X140981Y322535D02*
X136756Y313475D01*
X141286Y311363D01*
X143500Y312169D01*
X144204Y313678D01*
X143399Y315893D01*
X138868Y318005D01*
X143399Y315893D01*
X145613Y316699D01*
X146317Y318209D01*
X145511Y320423D01*
X140981Y322535D01*
X145816Y309250D02*
X150041Y318310D01*
X154571Y316198D01*
X155377Y313984D01*
X153969Y310964D01*
X151755Y310158D01*
X147224Y312270D01*
X150245Y310862D02*
X151856Y306434D01*
X165141Y311269D02*
X161417Y311167D01*
X156989Y309555D01*
X155581Y306535D01*
X156386Y304321D01*
X159406Y302913D01*
X161621Y303719D01*
X162325Y305229D01*
X161519Y307443D01*
X156989Y309555D01*
X338286Y107464D02*
X339282Y109599D01*
X338142Y112730D01*
X336006Y113726D01*
X329744Y111447D01*
X328748Y109311D01*
X329888Y106180D01*
X332023Y105184D01*
X338429Y102197D02*
X339569Y99066D01*
X338573Y96930D01*
X333876Y95220D01*
X332167Y99917D01*
X333163Y102053D01*
X335298Y101057D01*
X337008Y96360D01*
X335016Y92089D02*
X341279Y94369D01*
X341849Y92803D01*
X340853Y90667D01*
X336156Y88958D01*
X340853Y90667D01*
X342988Y89672D01*
X341993Y87536D01*
X337296Y85827D01*
X340145Y77998D02*
X339005Y81130D01*
X340001Y83265D01*
X343132Y84405D01*
X345268Y83409D01*
X346407Y80278D01*
X345412Y78142D01*
X343846Y77572D01*
X341567Y83835D01*
X348117Y75581D02*
X341854Y73301D01*
X344986Y74441D01*
X347121Y73445D01*
X349257Y72449D01*
X349827Y70884D01*
X352106Y64621D02*
X353246Y61490D01*
X352250Y59355D01*
X347553Y57645D01*
X345843Y62342D01*
X346839Y64477D01*
X348975Y63481D01*
X350684Y58785D01*
X365359Y-124149D02*
X355514Y-122413D01*
X354646Y-127336D01*
X355998Y-129266D01*
X362561Y-130423D01*
X364491Y-129072D01*
X365359Y-124149D01*
X352621Y-138822D02*
X353778Y-132258D01*
X359184Y-139979D01*
X360825Y-140268D01*
X362755Y-138917D01*
X363334Y-135635D01*
X361982Y-133705D01*
X-332708Y-169163D02*
Y-179160D01*
X-327710D01*
X-326044Y-177494D01*
Y-170829D01*
X-327710Y-169163D01*
X-332708D01*
X-316047Y-179160D02*
X-322711D01*
X-316047Y-172495D01*
Y-170829D01*
X-317713Y-169163D01*
X-321045D01*
X-322711Y-170829D01*
X-306050Y-179160D02*
X-312714D01*
X-306050Y-172495D01*
Y-170829D01*
X-307716Y-169163D01*
X-311048D01*
X-312714Y-170829D01*
X414884Y-50941D02*
X424880D01*
Y-55940D01*
X423214Y-57606D01*
X419882D01*
X418216Y-55940D01*
Y-50941D01*
X414884Y-60938D02*
Y-64270D01*
Y-62604D01*
X424880D01*
X423214Y-60938D01*
X-137129Y270290D02*
X-142127Y278948D01*
X-137799Y281447D01*
X-135523Y280837D01*
X-133857Y277951D01*
X-134466Y275675D01*
X-138795Y273176D01*
X-135909Y274842D02*
X-131357Y273622D01*
X-128471Y275288D02*
X-125586Y276954D01*
X-127029Y276122D01*
X-132027Y284779D01*
X-132637Y282503D01*
X-183078Y228348D02*
X-189504Y236006D01*
X-185675Y239219D01*
X-183328Y239014D01*
X-181186Y236461D01*
X-181391Y234114D01*
X-185220Y230901D01*
X-182667Y233043D02*
X-177973Y232632D01*
X-170315Y239058D02*
X-175420Y234774D01*
X-174599Y244163D01*
X-175670Y245439D01*
X-178017Y245645D01*
X-180569Y243503D01*
X-180775Y241155D01*
X-292781Y54552D02*
X-302522Y56801D01*
X-301397Y61671D01*
X-299399Y62920D01*
X-296152Y62170D01*
X-294903Y60172D01*
X-296028Y55302D01*
X-295278Y58548D02*
X-291282Y61046D01*
X-298649Y66167D02*
X-299898Y68165D01*
X-299148Y71412D01*
X-297150Y72660D01*
X-295527Y72285D01*
X-294278Y70287D01*
X-294653Y68664D01*
X-294278Y70287D01*
X-292280Y71536D01*
X-290657Y71161D01*
X-289408Y69163D01*
X-290157Y65916D01*
X-292156Y64667D01*
X-291681Y-5864D02*
X-301678D01*
Y-866D01*
X-300012Y800D01*
X-296679D01*
X-295013Y-866D01*
Y-5864D01*
Y-2532D02*
X-291681Y800D01*
Y9131D02*
X-301678D01*
X-296679Y4133D01*
Y10797D01*
X-222493Y-183079D02*
X-229562Y-190148D01*
X-233096Y-186613D01*
Y-184257D01*
X-230740Y-181901D01*
X-228384D01*
X-224849Y-185435D01*
X-227206Y-183079D02*
Y-178367D01*
X-241343D02*
X-236631Y-183079D01*
X-233096Y-179545D01*
X-236631Y-178367D01*
X-237809Y-177188D01*
Y-174832D01*
X-235452Y-172476D01*
X-233096D01*
X-230740Y-174832D01*
Y-177188D01*
X-152129Y-218088D02*
X-157127Y-226745D01*
X-161456Y-224246D01*
X-162066Y-221970D01*
X-160400Y-219084D01*
X-158124Y-218475D01*
X-153795Y-220974D01*
X-156681Y-219308D02*
X-157901Y-214756D01*
X-171556Y-218415D02*
X-167838Y-218638D01*
X-163286Y-217418D01*
X-161619Y-214533D01*
X-162229Y-212257D01*
X-165115Y-210590D01*
X-167391Y-211200D01*
X-168224Y-212643D01*
X-167614Y-214919D01*
X-163286Y-217418D01*
X4668Y-268181D02*
Y-278178D01*
X-330D01*
X-1997Y-276512D01*
Y-273179D01*
X-330Y-271513D01*
X4668D01*
X1336D02*
X-1997Y-268181D01*
X-5329Y-278178D02*
X-11993D01*
Y-276512D01*
X-5329Y-269847D01*
Y-268181D01*
X92058Y-271268D02*
X95477Y-280662D01*
X90780Y-282372D01*
X88645Y-281376D01*
X87505Y-278244D01*
X88501Y-276109D01*
X93198Y-274399D01*
X90066Y-275539D02*
X85795Y-273547D01*
X85513Y-282515D02*
X84518Y-284651D01*
X81386Y-285791D01*
X79251Y-284795D01*
X78681Y-283229D01*
X79677Y-281094D01*
X77541Y-280098D01*
X76971Y-278532D01*
X77967Y-276397D01*
X81098Y-275257D01*
X83234Y-276253D01*
X83804Y-277818D01*
X82808Y-279954D01*
X84944Y-280950D01*
X85513Y-282515D01*
X82808Y-279954D02*
X79677Y-281094D01*
X263630Y-142059D02*
X271819Y-147793D01*
X268952Y-151887D01*
X266632Y-152296D01*
X263902Y-150385D01*
X263493Y-148065D01*
X266360Y-143970D01*
X264448Y-146700D02*
X259807Y-147518D01*
X259261Y-151203D02*
X256940Y-151613D01*
X255029Y-154342D01*
X255438Y-156663D01*
X260898Y-160485D01*
X263218Y-160076D01*
X265129Y-157347D01*
X264720Y-155026D01*
X263355Y-154071D01*
X261035Y-154480D01*
X258168Y-158574D01*
X272129Y-87660D02*
X281523Y-91079D01*
X279813Y-95776D01*
X277678Y-96772D01*
X274547Y-95632D01*
X273551Y-93497D01*
X275260Y-88800D01*
X274121Y-91931D02*
X269850Y-93923D01*
X268710Y-97054D02*
X267570Y-100185D01*
X268140Y-98620D01*
X277534Y-102039D01*
X276538Y-99903D01*
X273689Y-107731D02*
X274685Y-109867D01*
X273545Y-112998D01*
X271409Y-113994D01*
X265147Y-111715D01*
X264151Y-109579D01*
X265291Y-106448D01*
X267426Y-105452D01*
X273689Y-107731D01*
X266414Y138287D02*
X275808Y141706D01*
X277518Y137009D01*
X276522Y134874D01*
X273390Y133734D01*
X271255Y134730D01*
X269545Y139427D01*
X270685Y136295D02*
X268693Y132024D01*
X269833Y128893D02*
X270973Y125762D01*
X270403Y127327D01*
X279797Y130747D01*
X277661Y131742D01*
X272682Y121065D02*
X273822Y117934D01*
X273252Y119499D01*
X282646Y122918D01*
X280511Y123914D01*
X222914Y185969D02*
X230572Y192395D01*
X233785Y188566D01*
X233580Y186218D01*
X231027Y184077D01*
X228680Y184282D01*
X225467Y188111D01*
X227609Y185558D02*
X227198Y180864D01*
X229340Y178311D02*
X231482Y175758D01*
X230411Y177035D01*
X238069Y183461D01*
X235721Y183666D01*
X238979Y166824D02*
X234695Y171929D01*
X244084Y171108D01*
X245360Y172179D01*
X245565Y174526D01*
X243424Y177079D01*
X241076Y177284D01*
X-269299Y158670D02*
X-277488Y164404D01*
X-274621Y168498D01*
X-272300Y168908D01*
X-269571Y166996D01*
X-269162Y164676D01*
X-272029Y160581D01*
X-270117Y163311D02*
X-265476Y164129D01*
X-263565Y166859D02*
X-271754Y172593D01*
X-268887Y176687D01*
X-266567Y177096D01*
X-263837Y175185D01*
X-263428Y172865D01*
X-266295Y168770D01*
X-264383Y171500D02*
X-259743Y172318D01*
X-257831Y175048D02*
X-255920Y177777D01*
X-256875Y176413D01*
X-265064Y182146D01*
X-264655Y179826D01*
X-305949Y-63922D02*
X-315605Y-66509D01*
X-316899Y-61681D01*
X-315721Y-59641D01*
X-312502Y-58778D01*
X-310461Y-59956D01*
X-309168Y-64784D01*
X-310030Y-61566D02*
X-307674Y-57485D01*
X-308536Y-54266D02*
X-318193Y-56853D01*
X-319486Y-52025D01*
X-318308Y-49985D01*
X-315089Y-49122D01*
X-313049Y-50300D01*
X-311755Y-55128D01*
X-312617Y-51910D02*
X-310261Y-47828D01*
X-312849Y-38172D02*
X-311124Y-44610D01*
X-319286Y-39897D01*
X-320895Y-40328D01*
X-322074Y-42369D01*
X-321211Y-45588D01*
X-319170Y-46766D01*
X-117979Y-291036D02*
X-121398Y-300430D01*
X-126095Y-298720D01*
X-127091Y-296585D01*
X-125951Y-293454D01*
X-123816Y-292458D01*
X-119119Y-294167D01*
X-122250Y-293028D02*
X-124242Y-288757D01*
X-127373Y-287617D02*
X-130792Y-297011D01*
X-135489Y-295301D01*
X-136485Y-293166D01*
X-135345Y-290034D01*
X-133210Y-289039D01*
X-128513Y-290748D01*
X-131644Y-289608D02*
X-133636Y-285338D01*
X-139616Y-292026D02*
X-141752Y-293022D01*
X-144883Y-291882D01*
X-145879Y-289747D01*
X-145309Y-288181D01*
X-143173Y-287185D01*
X-141608Y-287755D01*
X-143173Y-287185D01*
X-144169Y-285050D01*
X-143599Y-283484D01*
X-141464Y-282488D01*
X-138333Y-283628D01*
X-137337Y-285763D01*
X190474Y-230436D02*
X196208Y-238625D01*
X192113Y-241492D01*
X189793Y-241083D01*
X187882Y-238353D01*
X188291Y-236033D01*
X192385Y-233166D01*
X189656Y-235077D02*
X185015Y-234259D01*
X182285Y-236170D02*
X188019Y-244359D01*
X183925Y-247226D01*
X181604Y-246817D01*
X179693Y-244087D01*
X180102Y-241766D01*
X184196Y-238899D01*
X181467Y-240811D02*
X176826Y-239993D01*
X170002Y-244771D02*
X175736Y-252960D01*
X176963Y-245998D01*
X171504Y-249821D01*
X292094Y7749D02*
X302053Y6878D01*
X301617Y1898D01*
X299812Y384D01*
X296493Y674D01*
X294978Y2479D01*
X295414Y7459D01*
X295123Y4139D02*
X291513Y1110D01*
X291223Y-2210D02*
X301182Y-3081D01*
X300746Y-8060D01*
X298941Y-9575D01*
X295621Y-9284D01*
X294107Y-7480D01*
X294542Y-2500D01*
X294252Y-5820D02*
X290642Y-8849D01*
X299729Y-19679D02*
X300310Y-13040D01*
X295331Y-12604D01*
X296700Y-16069D01*
X296555Y-17729D01*
X294750Y-19243D01*
X291430Y-18953D01*
X289916Y-17148D01*
X290206Y-13828D01*
X292011Y-12314D01*
X200675Y281179D02*
X207101Y288837D01*
X210930Y285624D01*
X211135Y283277D01*
X208993Y280724D01*
X206646Y280519D01*
X202817Y283732D01*
X205370Y281590D02*
X205780Y276895D01*
X208333Y274753D02*
X214759Y282411D01*
X218588Y279198D01*
X218793Y276851D01*
X216651Y274298D01*
X214304Y274093D01*
X210475Y277306D01*
X213028Y275164D02*
X213438Y270469D01*
X227522Y271702D02*
X223899Y272567D01*
X219204Y272156D01*
X217062Y269604D01*
X217267Y267256D01*
X219820Y265114D01*
X222167Y265320D01*
X223238Y266596D01*
X223033Y268944D01*
X219204Y272156D01*
X-366102Y146165D02*
X-363823Y152428D01*
X-364962Y149296D01*
X-355568Y145877D01*
X-351579Y156837D02*
X-352719Y153706D01*
X-354855Y152710D01*
X-357986Y153849D01*
X-358982Y155985D01*
X-357842Y159116D01*
X-355706Y160112D01*
X-354141Y159542D01*
X-356420Y153280D01*
X-349870Y161534D02*
X-356132Y163813D01*
X-355563Y165379D01*
X-353427Y166375D01*
X-348730Y164665D01*
X-353427Y166375D01*
X-354423Y168510D01*
X-352287Y169506D01*
X-347590Y167796D01*
X-343319Y169788D02*
X-352713Y173207D01*
X-351004Y177904D01*
X-348868Y178900D01*
X-345737Y177760D01*
X-344741Y175625D01*
X-346451Y170928D01*
X-393148Y47375D02*
X-386654Y45875D01*
X-382658Y48373D01*
X-385155Y52369D01*
X-391648Y53868D01*
X-387277Y57989D02*
X-386528Y61236D01*
X-384529Y62484D01*
X-379659Y61360D01*
X-380784Y56490D01*
X-382782Y55241D01*
X-384030Y57239D01*
X-382906Y62110D01*
X-378910Y64607D02*
X-378160Y67854D01*
X-378535Y66230D01*
X-388275Y68479D01*
X-388650Y66856D01*
X-383529Y74223D02*
X-376286Y75971D01*
X-382030Y80717D01*
X-373662Y87335D02*
X-374412Y84088D01*
X-376410Y82839D01*
X-379657Y83589D01*
X-380906Y85587D01*
X-380156Y88834D01*
X-378158Y90083D01*
X-376535Y89708D01*
X-378034Y83214D01*
X-269656Y259088D02*
X-274654Y250431D01*
X-270102Y251651D01*
X-268882Y247099D01*
X-263884Y255756D01*
X-265996Y245433D02*
X-263111Y243766D01*
X-264554Y244599D01*
X-259555Y253257D01*
X-261831Y252647D01*
X-5179Y-383967D02*
Y-393964D01*
X-1847Y-390632D01*
X1486Y-393964D01*
Y-383967D01*
X11482Y-393964D02*
X4818D01*
X11482Y-387299D01*
Y-385633D01*
X9816Y-383967D01*
X6484D01*
X4818Y-385633D01*
X286606Y182553D02*
X292340Y174364D01*
X293158Y179005D01*
X297799Y178187D01*
X292065Y186376D01*
X295751Y186922D02*
X296160Y189242D01*
X298889Y191154D01*
X301210Y190745D01*
X302166Y189380D01*
X301756Y187059D01*
X300392Y186104D01*
X301756Y187059D01*
X304077Y186650D01*
X305033Y185285D01*
X304623Y182965D01*
X301894Y181054D01*
X299573Y181463D01*
X-343025Y163856D02*
X-333965Y159631D01*
X-335577Y164060D01*
X-331148Y165671D01*
X-340208Y169896D01*
X-329740Y168691D02*
X-338800Y172916D01*
X-336688Y177446D01*
X-334474Y178252D01*
X-331454Y176844D01*
X-330648Y174630D01*
X-332760Y170100D01*
X-331352Y173120D02*
X-326923Y174731D01*
X-325515Y177752D02*
X-324107Y180772D01*
X-324811Y179261D01*
X-333871Y183486D01*
X-333065Y181272D01*
X86606Y-385129D02*
Y-375132D01*
X83274Y-378464D01*
X79942Y-375132D01*
Y-385129D01*
X76609Y-375132D02*
Y-385129D01*
X71611D01*
X69945Y-383462D01*
Y-380130D01*
X71611Y-378464D01*
X76609D01*
X73277D02*
X69945Y-375132D01*
X59948D02*
X66612D01*
X59948Y-381796D01*
Y-383462D01*
X61614Y-385129D01*
X64946D01*
X66612Y-383462D01*
X329823Y188419D02*
X320429Y185000D01*
X324700Y183008D01*
X322708Y178737D01*
X332102Y182156D01*
X323848Y175606D02*
X333242Y179025D01*
X334951Y174328D01*
X333956Y172192D01*
X330824Y171053D01*
X328689Y172048D01*
X326979Y176745D01*
X328119Y173614D02*
X326127Y169343D01*
X335095Y169061D02*
X337231Y168065D01*
X338371Y164934D01*
X337375Y162799D01*
X335809Y162229D01*
X333674Y163225D01*
X333104Y164790D01*
X333674Y163225D01*
X332678Y161089D01*
X331112Y160519D01*
X328977Y161515D01*
X327837Y164646D01*
X328833Y166782D01*
X376553Y-59696D02*
X366556D01*
Y-64694D01*
X368222Y-66361D01*
X374887D01*
X376553Y-64694D01*
Y-59696D01*
X366556Y-69693D02*
Y-73025D01*
Y-71359D01*
X376553D01*
X374887Y-69693D01*
X258525Y-255400D02*
X250237Y-249810D01*
X247442Y-253954D01*
X247892Y-256267D01*
X253417Y-259994D01*
X255730Y-259544D01*
X258525Y-255400D01*
X251553Y-262756D02*
X252003Y-265069D01*
X250140Y-267832D01*
X247826Y-268281D01*
X246445Y-267350D01*
X245996Y-265037D01*
X246927Y-263655D01*
X245996Y-265037D01*
X243683Y-265486D01*
X242301Y-264555D01*
X241852Y-262241D01*
X243715Y-259479D01*
X246028Y-259029D01*
X-252419Y-259372D02*
Y-269369D01*
X-247421D01*
X-245755Y-267703D01*
Y-261038D01*
X-247421Y-259372D01*
X-252419D01*
X-235758Y-269369D02*
X-242422D01*
X-235758Y-262705D01*
Y-261038D01*
X-237424Y-259372D01*
X-240756D01*
X-242422Y-261038D01*
X-232425Y-269369D02*
X-229093D01*
X-230759D01*
Y-259372D01*
X-232425Y-261038D01*
X-28277Y-217718D02*
Y-219384D01*
X-24945Y-222717D01*
X-21613Y-219384D01*
Y-217718D01*
X-24945Y-222717D02*
Y-227715D01*
X-16614Y-221050D02*
X-13282D01*
X-11616Y-222717D01*
Y-227715D01*
X-16614D01*
X-18280Y-226049D01*
X-16614Y-224383D01*
X-11616D01*
X-1619Y-217718D02*
Y-227715D01*
X-6617D01*
X-8283Y-226049D01*
Y-222717D01*
X-6617Y-221050D01*
X-1619D01*
X1713D02*
X5046Y-227715D01*
X8378Y-221050D01*
X16709Y-227715D02*
X13376D01*
X11710Y-226049D01*
Y-222717D01*
X13376Y-221050D01*
X16709D01*
X18375Y-222717D01*
Y-224383D01*
X11710D01*
X21707Y-227715D02*
Y-221050D01*
X26705D01*
X28371Y-222717D01*
Y-227715D01*
X38368Y-217718D02*
Y-227715D01*
X33370D01*
X31704Y-226049D01*
Y-222717D01*
X33370Y-221050D01*
X38368D01*
X46699Y-227715D02*
X43367D01*
X41701Y-226049D01*
Y-222717D01*
X43367Y-221050D01*
X46699D01*
X48365Y-222717D01*
Y-224383D01*
X41701D01*
X51697Y-221050D02*
Y-227715D01*
Y-224383D01*
X53363Y-222717D01*
X55030Y-221050D01*
X56696D01*
X71691Y-217718D02*
Y-227715D01*
X76689D01*
X78355Y-226049D01*
Y-219384D01*
X76689Y-217718D01*
X71691D01*
X81688D02*
Y-227715D01*
Y-222717D01*
X83354Y-221050D01*
X86686D01*
X88352Y-222717D01*
Y-227715D01*
X91684D02*
X95017D01*
X93350D01*
Y-221050D01*
X91684D01*
X100015Y-227715D02*
X103347D01*
X101681D01*
Y-217718D01*
X100015D01*
X108346Y-227715D02*
X111678D01*
X110012D01*
Y-217718D01*
X108346D01*
X118342Y-227715D02*
X121675D01*
X123341Y-226049D01*
Y-222717D01*
X121675Y-221050D01*
X118342D01*
X116676Y-222717D01*
Y-226049D01*
X118342Y-227715D01*
X126673D02*
Y-221050D01*
X131671D01*
X133338Y-222717D01*
Y-227715D01*
X-113624Y-204422D02*
X-110292D01*
X-111958D01*
Y-214419D01*
X-113624D01*
X-110292D01*
X-98629Y-206088D02*
X-100295Y-204422D01*
X-103627D01*
X-105293Y-206088D01*
Y-207754D01*
X-103627Y-209421D01*
X-100295D01*
X-98629Y-211087D01*
Y-212753D01*
X-100295Y-214419D01*
X-103627D01*
X-105293Y-212753D01*
X-95297Y-204422D02*
Y-212753D01*
X-93630Y-214419D01*
X-90298D01*
X-88632Y-212753D01*
Y-204422D01*
X-85300Y-209421D02*
X-78635D01*
X-65306Y-204422D02*
Y-214419D01*
Y-209421D01*
X-58642D01*
Y-204422D01*
Y-214419D01*
X-55310Y-207754D02*
Y-212753D01*
X-53643Y-214419D01*
X-48645D01*
Y-216085D01*
X-50311Y-217751D01*
X-51977D01*
X-48645Y-214419D02*
Y-207754D01*
X-38648Y-204422D02*
Y-214419D01*
X-43646D01*
X-45313Y-212753D01*
Y-209421D01*
X-43646Y-207754D01*
X-38648D01*
X-35316D02*
Y-214419D01*
Y-211087D01*
X-33650Y-209421D01*
X-31984Y-207754D01*
X-30317D01*
X-23653D02*
X-20321D01*
X-18655Y-209421D01*
Y-214419D01*
X-23653D01*
X-25319Y-212753D01*
X-23653Y-211087D01*
X-18655D01*
X-5326Y-214419D02*
X-1993D01*
X-3659D01*
Y-204422D01*
X-5326Y-206088D01*
X13002Y-214419D02*
Y-204422D01*
X18000D01*
X19666Y-206088D01*
Y-209421D01*
X18000Y-211087D01*
X13002D01*
X29663Y-206088D02*
X27997Y-204422D01*
X24665D01*
X22999Y-206088D01*
Y-212753D01*
X24665Y-214419D01*
X27997D01*
X29663Y-212753D01*
X32995Y-204422D02*
Y-214419D01*
X37994D01*
X39660Y-212753D01*
Y-211087D01*
X37994Y-209421D01*
X32995D01*
X37994D01*
X39660Y-207754D01*
Y-206088D01*
X37994Y-204422D01*
X32995D01*
X52989D02*
Y-211087D01*
X56321Y-214419D01*
X59654Y-211087D01*
Y-204422D01*
X69650Y-214419D02*
X62986D01*
X69650Y-207754D01*
Y-206088D01*
X67984Y-204422D01*
X64652D01*
X62986Y-206088D01*
D75*
X-262939Y-259513D02*
X-242132Y-244944D01*
X-306645Y-197093D02*
X-262939Y-259513D01*
X-306645Y-197093D02*
X-285839Y-182524D01*
X-242132Y-244944D01*
X-169720Y-327350D02*
X-157020Y-305352D01*
X-235712Y-289250D02*
X-169720Y-327350D01*
X-235712Y-289250D02*
X-223012Y-267252D01*
X-157020Y-305352D01*
X-146535Y252427D02*
X-145435Y253062D01*
X-126431Y230306D02*
X-97835Y246816D01*
X-141671Y256702D02*
X-114174Y272577D01*
X-142895Y248663D02*
X-133370Y232165D01*
X-209513Y196847D02*
X-208540Y197663D01*
X-185873Y178552D02*
X-160578Y199777D01*
X-205465Y201901D02*
X-181143Y222310D01*
X-205275Y193772D02*
X-193030Y179179D01*
X-220794Y140408D02*
X-220121Y141485D01*
X-239234Y108502D02*
X-222409Y135427D01*
X-241257Y153195D02*
X-224025Y142427D01*
X-265082Y124654D02*
X-248257Y151579D01*
X-288542Y38478D02*
X-288256Y39716D01*
X-258652Y38095D02*
X-251224Y70268D01*
X-288351Y44951D02*
X-281208Y75887D01*
X-283306Y38573D02*
X-264744Y34288D01*
X-287027Y-50858D02*
X-286960Y-52127D01*
X-259851Y-11282D02*
X-258123Y-44257D01*
X-290223Y-14145D02*
X-288561Y-45852D01*
X-281954Y-50593D02*
X-262930Y-49596D01*
X-243094Y-95154D02*
X-242659Y-96348D01*
X-239728Y-100687D02*
X-228869Y-130522D01*
X-265334Y-104601D02*
X-246239Y-97651D01*
X-268370Y-111112D02*
X-257511Y-140947D01*
X-196187Y-208619D02*
X-195387Y-209606D01*
X-197463Y-160628D02*
X-176683Y-186289D01*
X-220352Y-180796D02*
X-200371Y-205471D01*
X-192239Y-205422D02*
X-177434Y-193434D01*
X-127572Y-262098D02*
X-126507Y-262790D01*
X-143617Y-216850D02*
X-115924Y-234834D01*
X-159152Y-243104D02*
X-132524Y-260397D01*
X-124805Y-257838D02*
X-114430Y-241861D01*
X-66842Y-253318D02*
X-65604Y-253604D01*
X-60369Y-253509D02*
X-29432Y-260652D01*
X-71032Y-277116D02*
X-66461Y-257316D01*
X-67225Y-283208D02*
X-36289Y-290350D01*
X51084Y-286724D02*
X52351Y-286636D01*
X11040Y-260243D02*
X43979Y-257940D01*
X14433Y-290560D02*
X46105Y-288346D01*
X49401Y-262653D02*
X50730Y-281657D01*
X136932Y-257621D02*
X138126Y-257186D01*
X91140Y-243203D02*
X122168Y-231910D01*
X102758Y-271411D02*
X132593Y-260552D01*
X128679Y-234946D02*
X135195Y-252847D01*
X162615Y-196837D02*
X163588Y-196021D01*
X166663Y-191782D02*
X190985Y-171374D01*
X166037Y-198939D02*
X179098Y-214505D01*
X186255Y-215132D02*
X210577Y-194723D01*
X262098Y-127572D02*
X262790Y-126507D01*
X216850Y-143617D02*
X234834Y-115924D01*
X243104Y-159152D02*
X260397Y-132524D01*
X241861Y-114430D02*
X257838Y-124805D01*
X288697Y-45658D02*
X289026Y-44432D01*
X250621Y-74900D02*
X259168Y-43005D01*
X280392Y-81562D02*
X288609Y-50894D01*
X265389Y-39413D02*
X283790Y-44344D01*
X260853Y16422D02*
X260920Y15153D01*
X257657Y53134D02*
X259319Y21428D01*
X264658Y16621D02*
X284950Y17684D01*
X288096Y54730D02*
X289757Y23023D01*
X257186Y138126D02*
X257621Y136932D01*
X231910Y122168D02*
X243203Y91140D01*
X260552Y132593D02*
X271411Y102758D01*
X234946Y128679D02*
X252847Y135195D01*
X195140Y207762D02*
X195973Y206803D01*
X177260Y183806D02*
X198923Y158885D01*
X200264Y203803D02*
X221094Y179841D01*
X177762Y190973D02*
X192139Y203471D01*
X140048Y220682D02*
X141113Y219990D01*
X108468Y239676D02*
X135096Y222383D01*
X142123Y223877D02*
X153190Y240919D01*
X125069Y265238D02*
X151696Y247946D01*
X322646Y-14954D02*
X322995Y-10970D01*
X315673Y-14344D02*
X316022Y-10359D01*
X-255984Y194710D02*
X-253690Y197987D01*
X-250250Y190695D02*
X-247956Y193972D01*
X-306082Y97871D02*
X-305047Y101735D01*
X-299321Y96059D02*
X-298286Y99923D01*
X-309774Y-87899D02*
X-308739Y-91763D01*
X-303013Y-86087D02*
X-301978Y-89951D01*
X-270664Y-174206D02*
X-268370Y-177483D01*
X-264930Y-170191D02*
X-262636Y-173468D01*
X-108670Y-302426D02*
X-104912Y-303794D01*
X-106276Y-295848D02*
X-102517Y-297216D01*
X-19481Y-344599D02*
X10999D01*
X-19481Y-375079D02*
X12269D01*
X-28371Y-364919D02*
Y-356029D01*
X-2838Y-321780D02*
X1162D01*
X-2838Y-314780D02*
X1162D01*
X181169Y-266839D02*
X184446Y-264545D01*
X177154Y-261105D02*
X180431Y-258811D01*
X253739Y-188726D02*
X256310Y-185662D01*
X248376Y-184226D02*
X250947Y-181162D01*
X307438Y95121D02*
X308473Y91257D01*
X300677Y93309D02*
X301712Y89445D01*
X194410Y256231D02*
X197474Y253659D01*
X189911Y250868D02*
X192975Y248297D01*
X128308Y295973D02*
X131933Y294283D01*
X125349Y289629D02*
X128974Y287939D01*
X69183Y-368982D02*
X73183D01*
X69183Y-361982D02*
X73183D01*
X388029Y92693D02*
X411897Y101380D01*
X353280Y188166D02*
X388029Y92693D01*
X377148Y196853D02*
X411897Y101380D01*
X353280Y188166D02*
X377148Y196853D01*
X387221Y-183583D02*
X426917Y41544D01*
X401903Y45955D02*
X426917Y41544D01*
X362207Y-179172D02*
X401903Y45955D01*
X362207Y-179172D02*
X387221Y-183583D01*
X-403825Y126384D02*
X-379957Y117697D01*
X-403825Y126384D02*
X-377763Y197989D01*
X-353895Y189302D01*
X-379957Y117697D02*
X-353895Y189302D01*
X-423312Y50580D02*
X-411885Y100078D01*
X-423312Y50580D02*
X-398563Y44867D01*
X-387136Y94365D01*
X-411885Y100078D02*
X-387136Y94365D01*
X333569Y-78316D02*
X358583Y-82727D01*
X345351Y-157769D02*
X358583Y-82727D01*
X320337Y-153359D02*
X345351Y-157769D01*
X320337Y-153359D02*
X333569Y-78316D01*
X341132Y12507D02*
X366497Y11178D01*
X362509Y-64918D02*
X366497Y11178D01*
X337144Y-63588D02*
X362509Y-64918D01*
X337144Y-63588D02*
X341132Y12507D01*
X285914Y242495D02*
X303397Y217527D01*
X260946Y225012D02*
X279158Y199004D01*
X264170Y238122D02*
X271452Y243221D01*
X-280359Y192685D02*
X-260767Y216034D01*
X-304524Y211304D02*
X-284116Y235626D01*
X-270618Y235905D02*
X-263808Y230191D01*
X-324276Y163743D02*
X-322586Y167369D01*
X-317932Y160785D02*
X-316242Y164410D01*
X312777Y165913D02*
X314777Y162449D01*
X318839Y169413D02*
X320839Y165949D01*
X253309Y-240677D02*
X274367Y-254881D01*
X253309Y-240677D02*
X295920Y-177504D01*
X316978Y-191708D01*
X274367Y-254881D02*
X316978Y-191708D01*
D76*
X404760Y146046D02*
X400063Y144336D01*
X400918Y141987D01*
X401986Y141490D01*
X405117Y142629D01*
X405615Y143697D01*
X404760Y146046D01*
X401773Y139639D02*
X406469Y141349D01*
X402912Y136508D01*
X407609Y138217D01*
X396851Y167661D02*
X392154Y165952D01*
X393009Y163603D01*
X394077Y163106D01*
X397208Y164245D01*
X397706Y165313D01*
X396851Y167661D01*
X393864Y161255D02*
X398560Y162965D01*
X399415Y160616D01*
X398917Y159548D01*
X397352Y158979D01*
X396284Y159476D01*
X395429Y161825D01*
X413809Y119890D02*
X412669Y123021D01*
X410321Y122167D01*
X411673Y120886D01*
X411958Y120103D01*
X411460Y119036D01*
X409895Y118466D01*
X408827Y118963D01*
X408257Y120529D01*
X408755Y121597D01*
X412813Y117755D02*
X410251Y115049D01*
X413953Y114623D01*
X413633Y119539D02*
X412493Y122670D01*
X410145Y121816D01*
X411497Y120535D01*
X411782Y119752D01*
X411284Y118685D01*
X409719Y118115D01*
X408651Y118612D01*
X408081Y120178D01*
X408579Y121246D01*
X412637Y117404D02*
X410075Y114698D01*
X413777Y114272D01*
X386135Y192190D02*
X386633Y193258D01*
X386063Y194824D01*
X384995Y195322D01*
X381864Y194182D01*
X381366Y193114D01*
X381936Y191549D01*
X383004Y191051D01*
X384569Y191621D01*
X383999Y193186D01*
X382790Y189200D02*
X387487Y190910D01*
X383930Y186069D01*
X388627Y187778D01*
X389197Y186213D02*
X384500Y184503D01*
X385355Y182155D01*
X386423Y181657D01*
X389554Y182796D01*
X390052Y183864D01*
X389197Y186213D01*
X-403372Y105245D02*
X-404392Y104656D01*
X-404823Y103046D01*
X-404234Y102026D01*
X-401016Y101164D01*
X-399995Y101753D01*
X-399564Y103362D01*
X-400153Y104382D01*
X-401763Y104813D01*
X-402194Y103204D01*
X-398917Y105776D02*
X-403745Y107070D01*
X-398055Y108995D01*
X-402883Y110288D01*
X-402452Y111898D02*
X-397624Y110604D01*
X-396977Y113018D01*
X-397566Y114038D01*
X-400785Y114901D01*
X-401805Y114312D01*
X-402452Y111898D01*
X-374540Y117373D02*
X-375560Y116784D01*
X-375992Y115174D01*
X-375402Y114154D01*
X-372184Y113292D01*
X-371163Y113881D01*
X-370732Y115490D01*
X-371321Y116510D01*
X-372931Y116941D01*
X-373362Y115332D01*
X-370085Y117904D02*
X-374913Y119198D01*
X-369223Y121123D01*
X-374051Y122416D01*
X-373620Y124026D02*
X-368792Y122732D01*
X-368145Y125146D01*
X-368734Y126166D01*
X-371953Y127029D01*
X-372973Y126440D01*
X-373620Y124026D01*
M02*
