G04 Layer_Color=8388736*
%FSLAX44Y44*%
%MOMM*%
G71*
G01*
G75*
G04:AMPARAMS|DCode=77|XSize=1.3032mm|YSize=2.6032mm|CornerRadius=0mm|HoleSize=0mm|Usage=FLASHONLY|Rotation=30.000|XOffset=0mm|YOffset=0mm|HoleType=Round|Shape=Rectangle|*
%AMROTATEDRECTD77*
4,1,4,0.0865,-1.4530,-1.2151,0.8014,-0.0865,1.4530,1.2151,-0.8014,0.0865,-1.4530,0.0*
%
%ADD77ROTATEDRECTD77*%

G04:AMPARAMS|DCode=78|XSize=2.4032mm|YSize=2.6032mm|CornerRadius=0mm|HoleSize=0mm|Usage=FLASHONLY|Rotation=30.000|XOffset=0mm|YOffset=0mm|HoleType=Round|Shape=Rectangle|*
%AMROTATEDRECTD78*
4,1,4,-0.3898,-1.7280,-1.6914,0.5264,0.3898,1.7280,1.6914,-0.5264,-0.3898,-1.7280,0.0*
%
%ADD78ROTATEDRECTD78*%

G04:AMPARAMS|DCode=79|XSize=1.3032mm|YSize=2.6032mm|CornerRadius=0mm|HoleSize=0mm|Usage=FLASHONLY|Rotation=40.000|XOffset=0mm|YOffset=0mm|HoleType=Round|Shape=Rectangle|*
%AMROTATEDRECTD79*
4,1,4,0.3375,-1.4159,-1.3358,0.5782,-0.3375,1.4159,1.3358,-0.5782,0.3375,-1.4159,0.0*
%
%ADD79ROTATEDRECTD79*%

G04:AMPARAMS|DCode=80|XSize=2.4032mm|YSize=2.6032mm|CornerRadius=0mm|HoleSize=0mm|Usage=FLASHONLY|Rotation=40.000|XOffset=0mm|YOffset=0mm|HoleType=Round|Shape=Rectangle|*
%AMROTATEDRECTD80*
4,1,4,-0.0838,-1.7695,-1.7571,0.2247,0.0838,1.7695,1.7571,-0.2247,-0.0838,-1.7695,0.0*
%
%ADD80ROTATEDRECTD80*%

G04:AMPARAMS|DCode=81|XSize=2.4032mm|YSize=2.6032mm|CornerRadius=0mm|HoleSize=0mm|Usage=FLASHONLY|Rotation=238.000|XOffset=0mm|YOffset=0mm|HoleType=Round|Shape=Rectangle|*
%AMROTATEDRECTD81*
4,1,4,-0.4671,1.7088,1.7406,0.3293,0.4671,-1.7088,-1.7406,-0.3293,-0.4671,1.7088,0.0*
%
%ADD81ROTATEDRECTD81*%

G04:AMPARAMS|DCode=82|XSize=1.3032mm|YSize=2.6032mm|CornerRadius=0mm|HoleSize=0mm|Usage=FLASHONLY|Rotation=238.000|XOffset=0mm|YOffset=0mm|HoleType=Round|Shape=Rectangle|*
%AMROTATEDRECTD82*
4,1,4,-0.7585,1.2423,1.4491,-0.1371,0.7585,-1.2423,-1.4491,0.1371,-0.7585,1.2423,0.0*
%
%ADD82ROTATEDRECTD82*%

G04:AMPARAMS|DCode=83|XSize=1.3032mm|YSize=2.6032mm|CornerRadius=0mm|HoleSize=0mm|Usage=FLASHONLY|Rotation=77.000|XOffset=0mm|YOffset=0mm|HoleType=Round|Shape=Rectangle|*
%AMROTATEDRECTD83*
4,1,4,1.1217,-0.9277,-1.4148,-0.3421,-1.1217,0.9277,1.4148,0.3421,1.1217,-0.9277,0.0*
%
%ADD83ROTATEDRECTD83*%

G04:AMPARAMS|DCode=84|XSize=2.4032mm|YSize=2.6032mm|CornerRadius=0mm|HoleSize=0mm|Usage=FLASHONLY|Rotation=77.000|XOffset=0mm|YOffset=0mm|HoleType=Round|Shape=Rectangle|*
%AMROTATEDRECTD84*
4,1,4,0.9979,-1.4636,-1.5385,-0.8780,-0.9979,1.4636,1.5385,0.8780,0.9979,-1.4636,0.0*
%
%ADD84ROTATEDRECTD84*%

G04:AMPARAMS|DCode=85|XSize=1.3032mm|YSize=2.6032mm|CornerRadius=0mm|HoleSize=0mm|Usage=FLASHONLY|Rotation=93.000|XOffset=0mm|YOffset=0mm|HoleType=Round|Shape=Rectangle|*
%AMROTATEDRECTD85*
4,1,4,1.3339,-0.5826,-1.2657,-0.7188,-1.3339,0.5826,1.2657,0.7188,1.3339,-0.5826,0.0*
%
%ADD85ROTATEDRECTD85*%

G04:AMPARAMS|DCode=86|XSize=2.4032mm|YSize=2.6032mm|CornerRadius=0mm|HoleSize=0mm|Usage=FLASHONLY|Rotation=93.000|XOffset=0mm|YOffset=0mm|HoleType=Round|Shape=Rectangle|*
%AMROTATEDRECTD86*
4,1,4,1.3627,-1.1318,-1.2369,-1.2681,-1.3627,1.1318,1.2369,1.2681,1.3627,-1.1318,0.0*
%
%ADD86ROTATEDRECTD86*%

G04:AMPARAMS|DCode=87|XSize=2.4032mm|YSize=2.6032mm|CornerRadius=0mm|HoleSize=0mm|Usage=FLASHONLY|Rotation=290.000|XOffset=0mm|YOffset=0mm|HoleType=Round|Shape=Rectangle|*
%AMROTATEDRECTD87*
4,1,4,-1.6341,0.6840,0.8121,1.5743,1.6341,-0.6840,-0.8121,-1.5743,-1.6341,0.6840,0.0*
%
%ADD87ROTATEDRECTD87*%

G04:AMPARAMS|DCode=88|XSize=1.3032mm|YSize=2.6032mm|CornerRadius=0mm|HoleSize=0mm|Usage=FLASHONLY|Rotation=290.000|XOffset=0mm|YOffset=0mm|HoleType=Round|Shape=Rectangle|*
%AMROTATEDRECTD88*
4,1,4,-1.4460,0.1671,1.0002,1.0575,1.4460,-0.1671,-1.0002,-1.0575,-1.4460,0.1671,0.0*
%
%ADD88ROTATEDRECTD88*%

G04:AMPARAMS|DCode=89|XSize=1.3032mm|YSize=2.6032mm|CornerRadius=0mm|HoleSize=0mm|Usage=FLASHONLY|Rotation=129.000|XOffset=0mm|YOffset=0mm|HoleType=Round|Shape=Rectangle|*
%AMROTATEDRECTD89*
4,1,4,1.4216,0.3127,-0.6015,-1.3255,-1.4216,-0.3127,0.6015,1.3255,1.4216,0.3127,0.0*
%
%ADD89ROTATEDRECTD89*%

G04:AMPARAMS|DCode=90|XSize=2.4032mm|YSize=2.6032mm|CornerRadius=0mm|HoleSize=0mm|Usage=FLASHONLY|Rotation=129.000|XOffset=0mm|YOffset=0mm|HoleType=Round|Shape=Rectangle|*
%AMROTATEDRECTD90*
4,1,4,1.7677,-0.1147,-0.2553,-1.7529,-1.7677,0.1147,0.2553,1.7529,1.7677,-0.1147,0.0*
%
%ADD90ROTATEDRECTD90*%

G04:AMPARAMS|DCode=91|XSize=1.3032mm|YSize=2.6032mm|CornerRadius=0mm|HoleSize=0mm|Usage=FLASHONLY|Rotation=147.000|XOffset=0mm|YOffset=0mm|HoleType=Round|Shape=Rectangle|*
%AMROTATEDRECTD91*
4,1,4,1.2554,0.7367,-0.1624,-1.4465,-1.2554,-0.7367,0.1624,1.4465,1.2554,0.7367,0.0*
%
%ADD91ROTATEDRECTD91*%

G04:AMPARAMS|DCode=92|XSize=2.4032mm|YSize=2.6032mm|CornerRadius=0mm|HoleSize=0mm|Usage=FLASHONLY|Rotation=147.000|XOffset=0mm|YOffset=0mm|HoleType=Round|Shape=Rectangle|*
%AMROTATEDRECTD92*
4,1,4,1.7167,0.4372,0.2988,-1.7460,-1.7167,-0.4372,-0.2988,1.7460,1.7167,0.4372,0.0*
%
%ADD92ROTATEDRECTD92*%

G04:AMPARAMS|DCode=93|XSize=2.4032mm|YSize=2.6032mm|CornerRadius=0mm|HoleSize=0mm|Usage=FLASHONLY|Rotation=347.000|XOffset=0mm|YOffset=0mm|HoleType=Round|Shape=Rectangle|*
%AMROTATEDRECTD93*
4,1,4,-1.4636,-0.9979,-0.8780,1.5385,1.4636,0.9979,0.8780,-1.5385,-1.4636,-0.9979,0.0*
%
%ADD93ROTATEDRECTD93*%

G04:AMPARAMS|DCode=94|XSize=1.3032mm|YSize=2.6032mm|CornerRadius=0mm|HoleSize=0mm|Usage=FLASHONLY|Rotation=347.000|XOffset=0mm|YOffset=0mm|HoleType=Round|Shape=Rectangle|*
%AMROTATEDRECTD94*
4,1,4,-0.9277,-1.1217,-0.3421,1.4148,0.9277,1.1217,0.3421,-1.4148,-0.9277,-1.1217,0.0*
%
%ADD94ROTATEDRECTD94*%

G04:AMPARAMS|DCode=95|XSize=1.3032mm|YSize=2.6032mm|CornerRadius=0mm|HoleSize=0mm|Usage=FLASHONLY|Rotation=184.000|XOffset=0mm|YOffset=0mm|HoleType=Round|Shape=Rectangle|*
%AMROTATEDRECTD95*
4,1,4,0.5592,1.3439,0.7408,-1.2530,-0.5592,-1.3439,-0.7408,1.2530,0.5592,1.3439,0.0*
%
%ADD95ROTATEDRECTD95*%

G04:AMPARAMS|DCode=96|XSize=2.4032mm|YSize=2.6032mm|CornerRadius=0mm|HoleSize=0mm|Usage=FLASHONLY|Rotation=184.000|XOffset=0mm|YOffset=0mm|HoleType=Round|Shape=Rectangle|*
%AMROTATEDRECTD96*
4,1,4,1.1079,1.3822,1.2895,-1.2146,-1.1079,-1.3822,-1.2895,1.2146,1.1079,1.3822,0.0*
%
%ADD96ROTATEDRECTD96*%

G04:AMPARAMS|DCode=97|XSize=1.3032mm|YSize=2.6032mm|CornerRadius=0mm|HoleSize=0mm|Usage=FLASHONLY|Rotation=200.000|XOffset=0mm|YOffset=0mm|HoleType=Round|Shape=Rectangle|*
%AMROTATEDRECTD97*
4,1,4,0.1671,1.4460,1.0575,-1.0002,-0.1671,-1.4460,-1.0575,1.0002,0.1671,1.4460,0.0*
%
%ADD97ROTATEDRECTD97*%

G04:AMPARAMS|DCode=98|XSize=2.4032mm|YSize=2.6032mm|CornerRadius=0mm|HoleSize=0mm|Usage=FLASHONLY|Rotation=200.000|XOffset=0mm|YOffset=0mm|HoleType=Round|Shape=Rectangle|*
%AMROTATEDRECTD98*
4,1,4,0.6840,1.6341,1.5743,-0.8121,-0.6840,-1.6341,-1.5743,0.8121,0.6840,1.6341,0.0*
%
%ADD98ROTATEDRECTD98*%

G04:AMPARAMS|DCode=99|XSize=1.3032mm|YSize=2.6032mm|CornerRadius=0mm|HoleSize=0mm|Usage=FLASHONLY|Rotation=237.000|XOffset=0mm|YOffset=0mm|HoleType=Round|Shape=Rectangle|*
%AMROTATEDRECTD99*
4,1,4,-0.7367,1.2554,1.4465,-0.1624,0.7367,-1.2554,-1.4465,0.1624,-0.7367,1.2554,0.0*
%
%ADD99ROTATEDRECTD99*%

G04:AMPARAMS|DCode=100|XSize=2.4032mm|YSize=2.6032mm|CornerRadius=0mm|HoleSize=0mm|Usage=FLASHONLY|Rotation=237.000|XOffset=0mm|YOffset=0mm|HoleType=Round|Shape=Rectangle|*
%AMROTATEDRECTD100*
4,1,4,-0.4372,1.7167,1.7460,0.2988,0.4372,-1.7167,-1.7460,-0.2988,-0.4372,1.7167,0.0*
%
%ADD100ROTATEDRECTD100*%

G04:AMPARAMS|DCode=101|XSize=1.3032mm|YSize=2.6032mm|CornerRadius=0mm|HoleSize=0mm|Usage=FLASHONLY|Rotation=255.000|XOffset=0mm|YOffset=0mm|HoleType=Round|Shape=Rectangle|*
%AMROTATEDRECTD101*
4,1,4,-1.0886,0.9663,1.4259,0.2925,1.0886,-0.9663,-1.4259,-0.2925,-1.0886,0.9663,0.0*
%
%ADD101ROTATEDRECTD101*%

G04:AMPARAMS|DCode=102|XSize=2.4032mm|YSize=2.6032mm|CornerRadius=0mm|HoleSize=0mm|Usage=FLASHONLY|Rotation=255.000|XOffset=0mm|YOffset=0mm|HoleType=Round|Shape=Rectangle|*
%AMROTATEDRECTD102*
4,1,4,-0.9463,1.4975,1.5682,0.8238,0.9463,-1.4975,-1.5682,-0.8238,-0.9463,1.4975,0.0*
%
%ADD102ROTATEDRECTD102*%

G04:AMPARAMS|DCode=103|XSize=1.3032mm|YSize=2.6032mm|CornerRadius=0mm|HoleSize=0mm|Usage=FLASHONLY|Rotation=311.000|XOffset=0mm|YOffset=0mm|HoleType=Round|Shape=Rectangle|*
%AMROTATEDRECTD103*
4,1,4,-1.4098,-0.3622,0.5548,1.3457,1.4098,0.3622,-0.5548,-1.3457,-1.4098,-0.3622,0.0*
%
%ADD103ROTATEDRECTD103*%

G04:AMPARAMS|DCode=104|XSize=2.4032mm|YSize=2.6032mm|CornerRadius=0mm|HoleSize=0mm|Usage=FLASHONLY|Rotation=311.000|XOffset=0mm|YOffset=0mm|HoleType=Round|Shape=Rectangle|*
%AMROTATEDRECTD104*
4,1,4,-1.7706,0.0529,0.1940,1.7608,1.7706,-0.0529,-0.1940,-1.7608,-1.7706,0.0529,0.0*
%
%ADD104ROTATEDRECTD104*%

G04:AMPARAMS|DCode=105|XSize=1.1032mm|YSize=0.9032mm|CornerRadius=0mm|HoleSize=0mm|Usage=FLASHONLY|Rotation=175.000|XOffset=0mm|YOffset=0mm|HoleType=Round|Shape=Rectangle|*
%AMROTATEDRECTD105*
4,1,4,0.5889,0.4018,0.5101,-0.4980,-0.5889,-0.4018,-0.5101,0.4980,0.5889,0.4018,0.0*
%
%ADD105ROTATEDRECTD105*%

G04:AMPARAMS|DCode=106|XSize=1.1032mm|YSize=0.9032mm|CornerRadius=0mm|HoleSize=0mm|Usage=FLASHONLY|Rotation=325.000|XOffset=0mm|YOffset=0mm|HoleType=Round|Shape=Rectangle|*
%AMROTATEDRECTD106*
4,1,4,-0.7109,-0.0536,-0.1928,0.6863,0.7109,0.0536,0.1928,-0.6863,-0.7109,-0.0536,0.0*
%
%ADD106ROTATEDRECTD106*%

G04:AMPARAMS|DCode=107|XSize=1.1032mm|YSize=0.9032mm|CornerRadius=0mm|HoleSize=0mm|Usage=FLASHONLY|Rotation=345.000|XOffset=0mm|YOffset=0mm|HoleType=Round|Shape=Rectangle|*
%AMROTATEDRECTD107*
4,1,4,-0.6497,-0.2934,-0.4159,0.5790,0.6497,0.2934,0.4159,-0.5790,-0.6497,-0.2934,0.0*
%
%ADD107ROTATEDRECTD107*%

G04:AMPARAMS|DCode=108|XSize=1.1032mm|YSize=0.9032mm|CornerRadius=0mm|HoleSize=0mm|Usage=FLASHONLY|Rotation=15.000|XOffset=0mm|YOffset=0mm|HoleType=Round|Shape=Rectangle|*
%AMROTATEDRECTD108*
4,1,4,-0.4159,-0.5790,-0.6497,0.2934,0.4159,0.5790,0.6497,-0.2934,-0.4159,-0.5790,0.0*
%
%ADD108ROTATEDRECTD108*%

G04:AMPARAMS|DCode=109|XSize=1.1032mm|YSize=0.9032mm|CornerRadius=0mm|HoleSize=0mm|Usage=FLASHONLY|Rotation=35.000|XOffset=0mm|YOffset=0mm|HoleType=Round|Shape=Rectangle|*
%AMROTATEDRECTD109*
4,1,4,-0.1928,-0.6863,-0.7109,0.0536,0.1928,0.6863,0.7109,-0.0536,-0.1928,-0.6863,0.0*
%
%ADD109ROTATEDRECTD109*%

G04:AMPARAMS|DCode=110|XSize=1.1032mm|YSize=0.9032mm|CornerRadius=0mm|HoleSize=0mm|Usage=FLASHONLY|Rotation=70.000|XOffset=0mm|YOffset=0mm|HoleType=Round|Shape=Rectangle|*
%AMROTATEDRECTD110*
4,1,4,0.2357,-0.6728,-0.6130,-0.3639,-0.2357,0.6728,0.6130,0.3639,0.2357,-0.6728,0.0*
%
%ADD110ROTATEDRECTD110*%

%ADD111R,1.7032X2.8032*%
%ADD112R,0.9032X1.1032*%
G04:AMPARAMS|DCode=113|XSize=1.1032mm|YSize=0.9032mm|CornerRadius=0mm|HoleSize=0mm|Usage=FLASHONLY|Rotation=125.000|XOffset=0mm|YOffset=0mm|HoleType=Round|Shape=Rectangle|*
%AMROTATEDRECTD113*
4,1,4,0.6863,-0.1928,-0.0536,-0.7109,-0.6863,0.1928,0.0536,0.7109,0.6863,-0.1928,0.0*
%
%ADD113ROTATEDRECTD113*%

G04:AMPARAMS|DCode=114|XSize=1.1032mm|YSize=0.9032mm|CornerRadius=0mm|HoleSize=0mm|Usage=FLASHONLY|Rotation=140.000|XOffset=0mm|YOffset=0mm|HoleType=Round|Shape=Rectangle|*
%AMROTATEDRECTD114*
4,1,4,0.7128,-0.0086,0.1323,-0.7005,-0.7128,0.0086,-0.1323,0.7005,0.7128,-0.0086,0.0*
%
%ADD114ROTATEDRECTD114*%

G04:AMPARAMS|DCode=115|XSize=1.1032mm|YSize=0.9032mm|CornerRadius=0mm|HoleSize=0mm|Usage=FLASHONLY|Rotation=230.000|XOffset=0mm|YOffset=0mm|HoleType=Round|Shape=Rectangle|*
%AMROTATEDRECTD115*
4,1,4,0.0086,0.7128,0.7005,0.1323,-0.0086,-0.7128,-0.7005,-0.1323,0.0086,0.7128,0.0*
%
%ADD115ROTATEDRECTD115*%

G04:AMPARAMS|DCode=116|XSize=1.1032mm|YSize=0.9032mm|CornerRadius=0mm|HoleSize=0mm|Usage=FLASHONLY|Rotation=245.000|XOffset=0mm|YOffset=0mm|HoleType=Round|Shape=Rectangle|*
%AMROTATEDRECTD116*
4,1,4,-0.1762,0.6908,0.6424,0.3091,0.1762,-0.6908,-0.6424,-0.3091,-0.1762,0.6908,0.0*
%
%ADD116ROTATEDRECTD116*%

G04:AMPARAMS|DCode=117|XSize=1.7032mm|YSize=2.8032mm|CornerRadius=0mm|HoleSize=0mm|Usage=FLASHONLY|Rotation=305.000|XOffset=0mm|YOffset=0mm|HoleType=Round|Shape=Rectangle|*
%AMROTATEDRECTD117*
4,1,4,-1.6366,-0.1063,0.6597,1.5015,1.6366,0.1063,-0.6597,-1.5015,-1.6366,-0.1063,0.0*
%
%ADD117ROTATEDRECTD117*%

G04:AMPARAMS|DCode=118|XSize=1.7032mm|YSize=2.8032mm|CornerRadius=0mm|HoleSize=0mm|Usage=FLASHONLY|Rotation=230.000|XOffset=0mm|YOffset=0mm|HoleType=Round|Shape=Rectangle|*
%AMROTATEDRECTD118*
4,1,4,-0.5263,1.5533,1.6211,-0.2486,0.5263,-1.5533,-1.6211,0.2486,-0.5263,1.5533,0.0*
%
%ADD118ROTATEDRECTD118*%

G04:AMPARAMS|DCode=119|XSize=1.1032mm|YSize=0.9032mm|CornerRadius=0mm|HoleSize=0mm|Usage=FLASHONLY|Rotation=335.000|XOffset=0mm|YOffset=0mm|HoleType=Round|Shape=Rectangle|*
%AMROTATEDRECTD119*
4,1,4,-0.6908,-0.1762,-0.3091,0.6424,0.6908,0.1762,0.3091,-0.6424,-0.6908,-0.1762,0.0*
%
%ADD119ROTATEDRECTD119*%

G04:AMPARAMS|DCode=120|XSize=1.1032mm|YSize=0.9032mm|CornerRadius=0mm|HoleSize=0mm|Usage=FLASHONLY|Rotation=30.000|XOffset=0mm|YOffset=0mm|HoleType=Round|Shape=Rectangle|*
%AMROTATEDRECTD120*
4,1,4,-0.2519,-0.6669,-0.7035,0.1153,0.2519,0.6669,0.7035,-0.1153,-0.2519,-0.6669,0.0*
%
%ADD120ROTATEDRECTD120*%

%ADD121C,0.7032*%
%ADD122C,1.7032*%
%ADD123P,2.4087X4X170.0*%
%ADD124P,2.4087X4X195.0*%
%ADD125C,3.7032*%
%ADD126P,2.4087X4X335.0*%
%ADD127P,2.4087X4X305.0*%
%ADD128C,3.2032*%
%ADD129P,2.4087X4X115.0*%
%ADD130P,2.4087X4X122.0*%
%ADD131P,2.4087X4X312.0*%
%ADD132P,2.4087X4X101.0*%
%ADD133C,1.4732*%
D77*
X-130647Y245469D02*
D03*
D78*
X-112894Y255719D02*
D03*
D79*
X-192658Y192753D02*
D03*
X179470Y-200931D02*
D03*
D80*
X-176954Y205930D02*
D03*
X195174Y-187754D02*
D03*
D81*
X-248279Y122785D02*
D03*
D82*
X-237416Y140170D02*
D03*
D83*
X-272617Y45352D02*
D03*
D84*
X-268006Y65327D02*
D03*
D85*
X-273547Y-41130D02*
D03*
X274333Y26150D02*
D03*
D86*
X-274620Y-20658D02*
D03*
X273260Y46622D02*
D03*
D87*
X-245694Y-128856D02*
D03*
X254586Y104424D02*
D03*
D88*
X-252705Y-109592D02*
D03*
X247575Y123688D02*
D03*
D89*
X-191000Y-192826D02*
D03*
D90*
X-203901Y-176894D02*
D03*
D91*
X-127520Y-245475D02*
D03*
X140100Y237305D02*
D03*
D92*
X-144713Y-234310D02*
D03*
X122907Y248470D02*
D03*
D93*
X-39993Y-273854D02*
D03*
D94*
X-59968Y-269243D02*
D03*
D95*
X41122Y-273417D02*
D03*
D96*
X20672Y-274847D02*
D03*
D97*
X123688Y-247575D02*
D03*
D98*
X104424Y-254586D02*
D03*
D99*
X245475Y-127520D02*
D03*
D100*
X234310Y-144713D02*
D03*
D101*
X272871Y-50746D02*
D03*
D102*
X267565Y-70547D02*
D03*
D103*
X191341Y190838D02*
D03*
D104*
X204790Y175367D02*
D03*
D105*
X319988Y-5185D02*
D03*
X318680Y-20128D02*
D03*
D106*
X-256272Y188197D02*
D03*
X-247668Y200485D02*
D03*
D107*
X-304125Y91652D02*
D03*
X-300243Y106141D02*
D03*
D108*
X-303935Y-96170D02*
D03*
X-307817Y-81681D02*
D03*
X302634Y99527D02*
D03*
X306516Y85039D02*
D03*
D109*
X-262348Y-179981D02*
D03*
X-270952Y-167693D02*
D03*
D110*
X-98546Y-302386D02*
D03*
X-112642Y-297256D02*
D03*
D111*
X-17971Y-359839D02*
D03*
X12029D02*
D03*
D112*
X6662Y-318280D02*
D03*
X-8338D02*
D03*
X78683Y-365482D02*
D03*
X63683D02*
D03*
D113*
X186944Y-258523D02*
D03*
X174656Y-267127D02*
D03*
D114*
X257164Y-179199D02*
D03*
X247522Y-190689D02*
D03*
D115*
X187947Y257085D02*
D03*
X199438Y247443D02*
D03*
D116*
X121844Y295126D02*
D03*
X135438Y288786D02*
D03*
D117*
X274296Y232516D02*
D03*
X291504Y207942D02*
D03*
D118*
X-273412Y224673D02*
D03*
X-292696Y201692D02*
D03*
D119*
X-323429Y157280D02*
D03*
X-317089Y170874D02*
D03*
D120*
X320558Y159436D02*
D03*
X313058Y172426D02*
D03*
D121*
X-265512Y56237D02*
X-259027D01*
X245704Y109592D02*
X252705D01*
X-200905Y-182401D02*
X-195280Y-176776D01*
D122*
X-288958Y-200212D02*
D03*
X-274389Y-221019D02*
D03*
X-218363Y-284601D02*
D03*
X-196366Y-297301D02*
D03*
X378245Y156707D02*
D03*
X386932Y132839D02*
D03*
X395619Y108971D02*
D03*
X407794Y6228D02*
D03*
X376919Y-168871D02*
D03*
X381330Y-143856D02*
D03*
X385741Y-118842D02*
D03*
X390151Y-93828D02*
D03*
X394562Y-68814D02*
D03*
X398973Y-43800D02*
D03*
X403383Y-18786D02*
D03*
X-370173Y181711D02*
D03*
X-378860Y157843D02*
D03*
X-402367Y84847D02*
D03*
X335049Y-143057D02*
D03*
X339460Y-118043D02*
D03*
X350491Y-51570D02*
D03*
X351821Y-26205D02*
D03*
X299347Y-195135D02*
D03*
X285144Y-216192D02*
D03*
D123*
X-259820Y-241825D02*
D03*
D124*
X-174369Y-310001D02*
D03*
D125*
X218100Y-218100D02*
D03*
X-218100D02*
D03*
X218100Y218100D02*
D03*
X-218100D02*
D03*
D126*
X369557Y180575D02*
D03*
D127*
X412205Y31242D02*
D03*
X343870Y-93029D02*
D03*
D128*
X101600Y-340350D02*
D03*
X-101600D02*
D03*
D129*
X-387547Y133975D02*
D03*
D130*
X-408081Y60098D02*
D03*
D131*
X353150Y-840D02*
D03*
D132*
X270940Y-237250D02*
D03*
D133*
X153143Y-274508D02*
D03*
X-178941Y-265292D02*
D03*
X-156056Y-259721D02*
D03*
X-241075Y250711D02*
D03*
X-387468Y20306D02*
D03*
X97833Y-365119D02*
D03*
X-242070Y-203120D02*
D03*
X-153200Y-276379D02*
D03*
X-98551Y-256734D02*
D03*
X-145380Y-312562D02*
D03*
X-418693Y44006D02*
D03*
X44765Y-193899D02*
D03*
X-115001Y-193898D02*
D03*
X244519Y253207D02*
D03*
X333288Y127937D02*
D03*
X307577Y16119D02*
D03*
X295778Y-96104D02*
D03*
X316395Y-37779D02*
D03*
X312157Y-60677D02*
D03*
X273436Y-164297D02*
D03*
X-77173Y-309524D02*
D03*
X112527Y-293144D02*
D03*
X-383744Y-53951D02*
D03*
X-370672Y-77542D02*
D03*
X38539Y-384348D02*
D03*
X-38118Y-232368D02*
D03*
X84222Y-201781D02*
D03*
X-12466Y-199407D02*
D03*
X109447Y-186456D02*
D03*
X-69156Y-188340D02*
D03*
X31670Y-184947D02*
D03*
X-182553Y-224641D02*
D03*
X-184236Y-241130D02*
D03*
X-200947Y-244843D02*
D03*
X-52175Y-387487D02*
D03*
M02*
